<svg xmlns="http://www.w3.org/2000/svg" viewBox="0 0 1600 1000" width="1600" height="1000" preserveAspectRatio="xMidYMid slice"><defs><linearGradient id="g" x1="0" y1="0" x2="1" y2="1"><stop offset="0" stop-color="#0d0024"/><stop offset="0.55" stop-color="#3b0f7a"/><stop offset="1" stop-color="#8e24aa"/></linearGradient><radialGradient id="r" cx="0.76" cy="0.38" r="0.6"><stop offset="0" stop-color="#ea80fc" stop-opacity="0.55"/><stop offset="1" stop-color="#ea80fc" stop-opacity="0"/></radialGradient><linearGradient id="v" x1="0" y1="0" x2="0" y2="1"><stop offset="0.45" stop-color="#000" stop-opacity="0"/><stop offset="1" stop-color="#000" stop-opacity="0.55"/></linearGradient></defs><rect width="1600" height="1000" fill="url(#g)"/><rect width="1600" height="1000" fill="url(#r)"/><g opacity="0.55" fill="none" stroke="#f2c14e"><circle cx="984.2040741101473" cy="389.59467659584965" r="90.1" stroke-width="1.2" stroke-dasharray="2 6"/><ellipse cx="1074.3" cy="389.6" rx="27.0" ry="9.9" transform="rotate(0.0 1074.3 389.6)" stroke-width="1.4"/><ellipse cx="1029.2" cy="467.6" rx="27.0" ry="9.9" transform="rotate(60.0 1029.2 467.6)" stroke-width="1.4"/><ellipse cx="939.2" cy="467.6" rx="27.0" ry="9.9" transform="rotate(120.0 939.2 467.6)" stroke-width="1.4"/><ellipse cx="894.1" cy="389.6" rx="27.0" ry="9.9" transform="rotate(180.0 894.1 389.6)" stroke-width="1.4"/><ellipse cx="939.2" cy="311.6" rx="27.0" ry="9.9" transform="rotate(240.0 939.2 311.6)" stroke-width="1.4"/><ellipse cx="1029.2" cy="311.6" rx="27.0" ry="9.9" transform="rotate(300.0 1029.2 311.6)" stroke-width="1.4"/><ellipse cx="1156.3" cy="442.8" rx="28.5" ry="10.5" transform="rotate(17.2 1156.3 442.8)" stroke-width="1.4"/><ellipse cx="1081.8" cy="541.0" rx="28.5" ry="10.5" transform="rotate(57.2 1081.8 541.0)" stroke-width="1.4"/><ellipse cx="961.7" cy="568.3" rx="28.5" ry="10.5" transform="rotate(97.2 961.7 568.3)" stroke-width="1.4"/><ellipse cx="852.1" cy="512.0" rx="28.5" ry="10.5" transform="rotate(137.2 852.1 512.0)" stroke-width="1.4"/><ellipse cx="804.3" cy="398.4" rx="28.5" ry="10.5" transform="rotate(177.2 804.3 398.4)" stroke-width="1.4"/><ellipse cx="840.7" cy="280.7" rx="28.5" ry="10.5" transform="rotate(217.2 840.7 280.7)" stroke-width="1.4"/><ellipse cx="944.3" cy="214.0" rx="28.5" ry="10.5" transform="rotate(257.2 944.3 214.0)" stroke-width="1.4"/><ellipse cx="1066.5" cy="229.4" rx="28.5" ry="10.5" transform="rotate(297.2 1066.5 229.4)" stroke-width="1.4"/><ellipse cx="1150.2" cy="319.8" rx="28.5" ry="10.5" transform="rotate(337.2 1150.2 319.8)" stroke-width="1.4"/><circle cx="984.2040741101473" cy="389.59467659584965" r="270.2" stroke-width="1.8" stroke-dasharray="4 10"/><ellipse cx="1207.2" cy="542.2" rx="30.0" ry="11.1" transform="rotate(34.4 1207.2 542.2)" stroke-width="1.4"/><ellipse cx="1101.0" cy="633.2" rx="30.0" ry="11.1" transform="rotate(64.4 1101.0 633.2)" stroke-width="1.4"/><ellipse cx="963.6" cy="659.0" rx="30.0" ry="11.1" transform="rotate(94.4 963.6 659.0)" stroke-width="1.4"/><ellipse cx="831.6" cy="612.6" rx="30.0" ry="11.1" transform="rotate(124.4 831.6 612.6)" stroke-width="1.4"/><ellipse cx="740.6" cy="506.4" rx="30.0" ry="11.1" transform="rotate(154.4 740.6 506.4)" stroke-width="1.4"/><ellipse cx="714.8" cy="369.0" rx="30.0" ry="11.1" transform="rotate(184.4 714.8 369.0)" stroke-width="1.4"/><ellipse cx="761.2" cy="237.0" rx="30.0" ry="11.1" transform="rotate(214.4 761.2 237.0)" stroke-width="1.4"/><ellipse cx="867.4" cy="146.0" rx="30.0" ry="11.1" transform="rotate(244.4 867.4 146.0)" stroke-width="1.4"/><ellipse cx="1004.8" cy="120.2" rx="30.0" ry="11.1" transform="rotate(274.4 1004.8 120.2)" stroke-width="1.4"/><ellipse cx="1136.8" cy="166.6" rx="30.0" ry="11.1" transform="rotate(304.4 1136.8 166.6)" stroke-width="1.4"/><ellipse cx="1227.8" cy="272.8" rx="30.0" ry="11.1" transform="rotate(334.4 1227.8 272.8)" stroke-width="1.4"/><ellipse cx="1253.6" cy="410.2" rx="30.0" ry="11.1" transform="rotate(364.4 1253.6 410.2)" stroke-width="1.4"/><ellipse cx="1208.1" cy="671.8" rx="31.5" ry="11.7" transform="rotate(51.6 1208.1 671.8)" stroke-width="1.4"/><ellipse cx="1074.0" cy="738.5" rx="31.5" ry="11.7" transform="rotate(75.6 1074.0 738.5)" stroke-width="1.4"/><ellipse cx="924.3" cy="744.8" rx="31.5" ry="11.7" transform="rotate(99.6 924.3 744.8)" stroke-width="1.4"/><ellipse cx="785.0" cy="689.8" rx="31.5" ry="11.7" transform="rotate(123.6 785.0 689.8)" stroke-width="1.4"/><ellipse cx="680.1" cy="582.8" rx="31.5" ry="11.7" transform="rotate(147.6 680.1 582.8)" stroke-width="1.4"/><ellipse cx="627.8" cy="442.4" rx="31.5" ry="11.7" transform="rotate(171.6 627.8 442.4)" stroke-width="1.4"/><ellipse cx="637.2" cy="292.9" rx="31.5" ry="11.7" transform="rotate(195.6 637.2 292.9)" stroke-width="1.4"/><ellipse cx="706.5" cy="160.1" rx="31.5" ry="11.7" transform="rotate(219.6 706.5 160.1)" stroke-width="1.4"/><ellipse cx="823.8" cy="67.0" rx="31.5" ry="11.7" transform="rotate(243.6 823.8 67.0)" stroke-width="1.4"/><ellipse cx="968.9" cy="29.7" rx="31.5" ry="11.7" transform="rotate(267.6 968.9 29.7)" stroke-width="1.4"/><ellipse cx="1116.6" cy="54.6" rx="31.5" ry="11.7" transform="rotate(291.6 1116.6 54.6)" stroke-width="1.4"/><ellipse cx="1241.4" cy="137.4" rx="31.5" ry="11.7" transform="rotate(315.6 1241.4 137.4)" stroke-width="1.4"/><ellipse cx="1321.8" cy="263.8" rx="31.5" ry="11.7" transform="rotate(339.6 1321.8 263.8)" stroke-width="1.4"/><ellipse cx="1343.8" cy="412.0" rx="31.5" ry="11.7" transform="rotate(363.6 1343.8 412.0)" stroke-width="1.4"/><ellipse cx="1303.6" cy="556.3" rx="31.5" ry="11.7" transform="rotate(387.6 1303.6 556.3)" stroke-width="1.4"/><circle cx="984.2040741101473" cy="389.59467659584965" r="450.3" stroke-width="2.4" stroke-dasharray="6 14"/><ellipse cx="1147.4" cy="809.3" rx="33.0" ry="12.3" transform="rotate(68.8 1147.4 809.3)" stroke-width="1.4"/><ellipse cx="994.0" cy="839.8" rx="33.0" ry="12.3" transform="rotate(88.8 994.0 839.8)" stroke-width="1.4"/><ellipse cx="839.4" cy="816.0" rx="33.0" ry="12.3" transform="rotate(108.8 839.4 816.0)" stroke-width="1.4"/><ellipse cx="702.3" cy="740.8" rx="33.0" ry="12.3" transform="rotate(128.8 702.3 740.8)" stroke-width="1.4"/><ellipse cx="599.2" cy="623.2" rx="33.0" ry="12.3" transform="rotate(148.8 599.2 623.2)" stroke-width="1.4"/><ellipse cx="542.5" cy="477.4" rx="33.0" ry="12.3" transform="rotate(168.8 542.5 477.4)" stroke-width="1.4"/><ellipse cx="539.1" cy="321.1" rx="33.0" ry="12.3" transform="rotate(188.8 539.1 321.1)" stroke-width="1.4"/><ellipse cx="589.4" cy="173.0" rx="33.0" ry="12.3" transform="rotate(208.8 589.4 173.0)" stroke-width="1.4"/><ellipse cx="687.3" cy="51.0" rx="33.0" ry="12.3" transform="rotate(228.8 687.3 51.0)" stroke-width="1.4"/><ellipse cx="821.0" cy="-30.1" rx="33.0" ry="12.3" transform="rotate(248.8 821.0 -30.1)" stroke-width="1.4"/><ellipse cx="974.4" cy="-60.6" rx="33.0" ry="12.3" transform="rotate(268.8 974.4 -60.6)" stroke-width="1.4"/><ellipse cx="1129.0" cy="-36.8" rx="33.0" ry="12.3" transform="rotate(288.8 1129.0 -36.8)" stroke-width="1.4"/><ellipse cx="1266.1" cy="38.4" rx="33.0" ry="12.3" transform="rotate(308.8 1266.1 38.4)" stroke-width="1.4"/><ellipse cx="1369.2" cy="156.0" rx="33.0" ry="12.3" transform="rotate(328.8 1369.2 156.0)" stroke-width="1.4"/><ellipse cx="1425.9" cy="301.8" rx="33.0" ry="12.3" transform="rotate(348.8 1425.9 301.8)" stroke-width="1.4"/><ellipse cx="1429.3" cy="458.1" rx="33.0" ry="12.3" transform="rotate(368.8 1429.3 458.1)" stroke-width="1.4"/><ellipse cx="1379.0" cy="606.2" rx="33.0" ry="12.3" transform="rotate(388.8 1379.0 606.2)" stroke-width="1.4"/><ellipse cx="1281.1" cy="728.2" rx="33.0" ry="12.3" transform="rotate(408.8 1281.1 728.2)" stroke-width="1.4"/><circle cx="984.2040741101473" cy="389.59467659584965" r="36.0" fill="#f2c14e" opacity="0.6"/></g><g opacity="0.18" fill="none" stroke="#ffffff"><circle cx="261.89333557117334" cy="796.2029668472478" r="56.0" stroke-width="1.2" stroke-dasharray="2 6"/><ellipse cx="317.9" cy="796.2" rx="16.8" ry="6.2" transform="rotate(0.0 317.9 796.2)" stroke-width="1.4"/><ellipse cx="289.9" cy="844.7" rx="16.8" ry="6.2" transform="rotate(60.0 289.9 844.7)" stroke-width="1.4"/><ellipse cx="233.9" cy="844.7" rx="16.8" ry="6.2" transform="rotate(120.0 233.9 844.7)" stroke-width="1.4"/><ellipse cx="205.9" cy="796.2" rx="16.8" ry="6.2" transform="rotate(180.0 205.9 796.2)" stroke-width="1.4"/><ellipse cx="233.9" cy="747.7" rx="16.8" ry="6.2" transform="rotate(240.0 233.9 747.7)" stroke-width="1.4"/><ellipse cx="289.9" cy="747.7" rx="16.8" ry="6.2" transform="rotate(300.0 289.9 747.7)" stroke-width="1.4"/><ellipse cx="368.9" cy="829.3" rx="18.3" ry="6.8" transform="rotate(17.2 368.9 829.3)" stroke-width="1.4"/><ellipse cx="322.6" cy="890.3" rx="18.3" ry="6.8" transform="rotate(57.2 322.6 890.3)" stroke-width="1.4"/><ellipse cx="247.9" cy="907.3" rx="18.3" ry="6.8" transform="rotate(97.2 247.9 907.3)" stroke-width="1.4"/><ellipse cx="179.7" cy="872.3" rx="18.3" ry="6.8" transform="rotate(137.2 179.7 872.3)" stroke-width="1.4"/><ellipse cx="150.0" cy="801.7" rx="18.3" ry="6.8" transform="rotate(177.2 150.0 801.7)" stroke-width="1.4"/><ellipse cx="172.7" cy="728.5" rx="18.3" ry="6.8" transform="rotate(217.2 172.7 728.5)" stroke-width="1.4"/><ellipse cx="237.1" cy="687.0" rx="18.3" ry="6.8" transform="rotate(257.2 237.1 687.0)" stroke-width="1.4"/><ellipse cx="313.1" cy="696.6" rx="18.3" ry="6.8" transform="rotate(297.2 313.1 696.6)" stroke-width="1.4"/><ellipse cx="365.1" cy="752.8" rx="18.3" ry="6.8" transform="rotate(337.2 365.1 752.8)" stroke-width="1.4"/><circle cx="261.89333557117334" cy="796.2029668472478" r="168.0" stroke-width="1.8" stroke-dasharray="4 10"/><ellipse cx="400.5" cy="891.1" rx="19.8" ry="7.4" transform="rotate(34.4 400.5 891.1)" stroke-width="1.4"/><ellipse cx="334.5" cy="947.7" rx="19.8" ry="7.4" transform="rotate(64.4 334.5 947.7)" stroke-width="1.4"/><ellipse cx="249.1" cy="963.7" rx="19.8" ry="7.4" transform="rotate(94.4 249.1 963.7)" stroke-width="1.4"/><ellipse cx="167.0" cy="934.9" rx="19.8" ry="7.4" transform="rotate(124.4 167.0 934.9)" stroke-width="1.4"/><ellipse cx="110.4" cy="868.9" rx="19.8" ry="7.4" transform="rotate(154.4 110.4 868.9)" stroke-width="1.4"/><ellipse cx="94.4" cy="783.4" rx="19.8" ry="7.4" transform="rotate(184.4 94.4 783.4)" stroke-width="1.4"/><ellipse cx="123.2" cy="701.3" rx="19.8" ry="7.4" transform="rotate(214.4 123.2 701.3)" stroke-width="1.4"/><ellipse cx="189.2" cy="644.7" rx="19.8" ry="7.4" transform="rotate(244.4 189.2 644.7)" stroke-width="1.4"/><ellipse cx="274.7" cy="628.7" rx="19.8" ry="7.4" transform="rotate(274.4 274.7 628.7)" stroke-width="1.4"/><ellipse cx="356.8" cy="657.5" rx="19.8" ry="7.4" transform="rotate(304.4 356.8 657.5)" stroke-width="1.4"/><ellipse cx="413.4" cy="723.6" rx="19.8" ry="7.4" transform="rotate(334.4 413.4 723.6)" stroke-width="1.4"/><ellipse cx="429.4" cy="809.0" rx="19.8" ry="7.4" transform="rotate(364.4 429.4 809.0)" stroke-width="1.4"/><ellipse cx="401.1" cy="971.7" rx="21.3" ry="8.0" transform="rotate(51.6 401.1 971.7)" stroke-width="1.4"/><ellipse cx="317.7" cy="1013.1" rx="21.3" ry="8.0" transform="rotate(75.6 317.7 1013.1)" stroke-width="1.4"/><ellipse cx="224.7" cy="1017.1" rx="21.3" ry="8.0" transform="rotate(99.6 224.7 1017.1)" stroke-width="1.4"/><ellipse cx="138.0" cy="982.9" rx="21.3" ry="8.0" transform="rotate(123.6 138.0 982.9)" stroke-width="1.4"/><ellipse cx="72.8" cy="916.3" rx="21.3" ry="8.0" transform="rotate(147.6 72.8 916.3)" stroke-width="1.4"/><ellipse cx="40.3" cy="829.1" rx="21.3" ry="8.0" transform="rotate(171.6 40.3 829.1)" stroke-width="1.4"/><ellipse cx="46.1" cy="736.1" rx="21.3" ry="8.0" transform="rotate(195.6 46.1 736.1)" stroke-width="1.4"/><ellipse cx="89.2" cy="653.5" rx="21.3" ry="8.0" transform="rotate(219.6 89.2 653.5)" stroke-width="1.4"/><ellipse cx="162.2" cy="595.6" rx="21.3" ry="8.0" transform="rotate(243.6 162.2 595.6)" stroke-width="1.4"/><ellipse cx="252.4" cy="572.4" rx="21.3" ry="8.0" transform="rotate(267.6 252.4 572.4)" stroke-width="1.4"/><ellipse cx="344.2" cy="587.9" rx="21.3" ry="8.0" transform="rotate(291.6 344.2 587.9)" stroke-width="1.4"/><ellipse cx="421.8" cy="639.4" rx="21.3" ry="8.0" transform="rotate(315.6 421.8 639.4)" stroke-width="1.4"/><ellipse cx="471.8" cy="718.0" rx="21.3" ry="8.0" transform="rotate(339.6 471.8 718.0)" stroke-width="1.4"/><ellipse cx="485.5" cy="810.1" rx="21.3" ry="8.0" transform="rotate(363.6 485.5 810.1)" stroke-width="1.4"/><ellipse cx="460.5" cy="899.9" rx="21.3" ry="8.0" transform="rotate(387.6 460.5 899.9)" stroke-width="1.4"/><circle cx="261.89333557117334" cy="796.2029668472478" r="280.0" stroke-width="2.4" stroke-dasharray="6 14"/><ellipse cx="363.4" cy="1057.2" rx="22.8" ry="8.6" transform="rotate(68.8 363.4 1057.2)" stroke-width="1.4"/><ellipse cx="268.0" cy="1076.1" rx="22.8" ry="8.6" transform="rotate(88.8 268.0 1076.1)" stroke-width="1.4"/><ellipse cx="171.9" cy="1061.3" rx="22.8" ry="8.6" transform="rotate(108.8 171.9 1061.3)" stroke-width="1.4"/><ellipse cx="86.6" cy="1014.6" rx="22.8" ry="8.6" transform="rotate(128.8 86.6 1014.6)" stroke-width="1.4"/><ellipse cx="22.5" cy="941.4" rx="22.8" ry="8.6" transform="rotate(148.8 22.5 941.4)" stroke-width="1.4"/><ellipse cx="-12.7" cy="850.8" rx="22.8" ry="8.6" transform="rotate(168.8 -12.7 850.8)" stroke-width="1.4"/><ellipse cx="-14.8" cy="753.6" rx="22.8" ry="8.6" transform="rotate(188.8 -14.8 753.6)" stroke-width="1.4"/><ellipse cx="16.4" cy="661.5" rx="22.8" ry="8.6" transform="rotate(208.8 16.4 661.5)" stroke-width="1.4"/><ellipse cx="77.3" cy="585.7" rx="22.8" ry="8.6" transform="rotate(228.8 77.3 585.7)" stroke-width="1.4"/><ellipse cx="160.4" cy="535.2" rx="22.8" ry="8.6" transform="rotate(248.8 160.4 535.2)" stroke-width="1.4"/><ellipse cx="255.8" cy="516.3" rx="22.8" ry="8.6" transform="rotate(268.8 255.8 516.3)" stroke-width="1.4"/><ellipse cx="351.9" cy="531.1" rx="22.8" ry="8.6" transform="rotate(288.8 351.9 531.1)" stroke-width="1.4"/><ellipse cx="437.2" cy="577.9" rx="22.8" ry="8.6" transform="rotate(308.8 437.2 577.9)" stroke-width="1.4"/><ellipse cx="501.3" cy="651.0" rx="22.8" ry="8.6" transform="rotate(328.8 501.3 651.0)" stroke-width="1.4"/><ellipse cx="536.5" cy="741.6" rx="22.8" ry="8.6" transform="rotate(348.8 536.5 741.6)" stroke-width="1.4"/><ellipse cx="538.6" cy="838.8" rx="22.8" ry="8.6" transform="rotate(368.8 538.6 838.8)" stroke-width="1.4"/><ellipse cx="507.4" cy="930.9" rx="22.8" ry="8.6" transform="rotate(388.8 507.4 930.9)" stroke-width="1.4"/><ellipse cx="446.5" cy="1006.7" rx="22.8" ry="8.6" transform="rotate(408.8 446.5 1006.7)" stroke-width="1.4"/><circle cx="261.89333557117334" cy="796.2029668472478" r="22.4" fill="#ffffff" opacity="0.6"/></g><rect x="522" y="158" width="10.8" height="5.7" rx="1.5" fill="#ff80ab" opacity="0.66" transform="rotate(125 522 158)"/><rect x="353" y="650" width="6.4" height="4.9" rx="1.5" fill="#b388ff" opacity="0.60" transform="rotate(180 353 650)"/><circle cx="416" cy="238" r="2.9" fill="#f2c14e" opacity="0.57"/><rect x="1254" y="839" width="10.7" height="3.8" rx="1.5" fill="#f2c14e" opacity="0.59" transform="rotate(143 1254 839)"/><rect x="1283" y="395" width="13.1" height="3.0" rx="1.5" fill="#b388ff" opacity="0.36" transform="rotate(173 1283 395)"/><rect x="1389" y="198" width="12.9" height="3.3" rx="1.5" fill="#ffffff" opacity="0.56" transform="rotate(130 1389 198)"/><rect x="613" y="773" width="6.6" height="3.2" rx="1.5" fill="#f2c14e" opacity="0.78" transform="rotate(36 613 773)"/><rect x="1553" y="441" width="9.0" height="3.4" rx="1.5" fill="#f2c14e" opacity="0.79" transform="rotate(55 1553 441)"/><rect x="75" y="802" width="8.4" height="5.5" rx="1.5" fill="#f2c14e" opacity="0.51" transform="rotate(53 75 802)"/><circle cx="1206" cy="260" r="3.7" fill="#ffffff" opacity="0.64"/><circle cx="870" cy="945" r="3.4" fill="#ffffff" opacity="0.60"/><circle cx="829" cy="623" r="6.5" fill="#b388ff" opacity="0.46"/><rect x="309" y="174" width="11.8" height="3.6" rx="1.5" fill="#b388ff" opacity="0.73" transform="rotate(24 309 174)"/><circle cx="718" cy="710" r="3.1" fill="#f2c14e" opacity="0.61"/><rect x="121" y="342" width="8.1" height="3.8" rx="1.5" fill="#ffffff" opacity="0.87" transform="rotate(28 121 342)"/><rect x="1442" y="603" width="13.6" height="4.1" rx="1.5" fill="#ffffff" opacity="0.44" transform="rotate(166 1442 603)"/><circle cx="298" cy="390" r="4.4" fill="#f2c14e" opacity="0.89"/><rect x="219" y="989" width="10.0" height="5.9" rx="1.5" fill="#b388ff" opacity="0.40" transform="rotate(70 219 989)"/><rect x="1433" y="351" width="11.2" height="4.9" rx="1.5" fill="#b388ff" opacity="0.72" transform="rotate(83 1433 351)"/><circle cx="534" cy="862" r="2.5" fill="#f2c14e" opacity="0.81"/><rect x="431" y="70" width="10.8" height="4.0" rx="1.5" fill="#ffffff" opacity="0.74" transform="rotate(108 431 70)"/><rect x="200" y="178" width="13.5" height="3.2" rx="1.5" fill="#b388ff" opacity="0.76" transform="rotate(172 200 178)"/><rect x="1446" y="38" width="9.7" height="4.6" rx="1.5" fill="#f2c14e" opacity="0.89" transform="rotate(5 1446 38)"/><circle cx="811" cy="90" r="4.1" fill="#ff80ab" opacity="0.55"/><circle cx="1166" cy="367" r="2.5" fill="#ff80ab" opacity="0.82"/><circle cx="1120" cy="889" r="3.9" fill="#ffffff" opacity="0.35"/><rect x="141" y="882" width="13.1" height="5.1" rx="1.5" fill="#b388ff" opacity="0.84" transform="rotate(67 141 882)"/><circle cx="770" cy="384" r="3.3" fill="#ffffff" opacity="0.68"/><circle cx="118" cy="147" r="2.9" fill="#f2c14e" opacity="0.46"/><circle cx="117" cy="900" r="4.6" fill="#ff80ab" opacity="0.87"/><rect x="83" y="243" width="9.3" height="3.1" rx="1.5" fill="#f2c14e" opacity="0.61" transform="rotate(157 83 243)"/><circle cx="1418" cy="390" r="6.2" fill="#f2c14e" opacity="0.88"/><rect x="1294" y="386" width="9.4" height="3.0" rx="1.5" fill="#f2c14e" opacity="0.51" transform="rotate(113 1294 386)"/><circle cx="1549" cy="869" r="6.5" fill="#ff80ab" opacity="0.77"/><rect x="619" y="386" width="14.7" height="4.7" rx="1.5" fill="#b388ff" opacity="0.77" transform="rotate(63 619 386)"/><circle cx="1352" cy="817" r="6.4" fill="#b388ff" opacity="0.79"/><rect x="256" y="890" width="8.7" height="5.5" rx="1.5" fill="#b388ff" opacity="0.76" transform="rotate(109 256 890)"/><circle cx="1422" cy="528" r="4.1" fill="#ff80ab" opacity="0.43"/><rect x="776" y="229" width="6.6" height="4.8" rx="1.5" fill="#ff80ab" opacity="0.55" transform="rotate(137 776 229)"/><rect x="1082" y="351" width="9.4" height="3.9" rx="1.5" fill="#b388ff" opacity="0.41" transform="rotate(89 1082 351)"/><circle cx="1114" cy="277" r="3.3" fill="#b388ff" opacity="0.79"/><rect x="796" y="113" width="15.4" height="3.3" rx="1.5" fill="#f2c14e" opacity="0.79" transform="rotate(1 796 113)"/><circle cx="63" cy="154" r="5.2" fill="#ffffff" opacity="0.64"/><rect x="981" y="780" width="11.8" height="4.6" rx="1.5" fill="#ffffff" opacity="0.80" transform="rotate(76 981 780)"/><circle cx="337" cy="805" r="6.6" fill="#f2c14e" opacity="0.36"/><rect x="477" y="310" width="13.9" height="4.4" rx="1.5" fill="#ffffff" opacity="0.50" transform="rotate(63 477 310)"/><g transform="rotate(-31.500744107700058 984.2040741101473 389.59467659584965)"><rect x="509.2040741101473" y="367.09467659584965" width="950.0" height="45.0" rx="22.5" fill="#f2c14e"/><rect x="554.2" y="367.09467659584965" width="43.0" height="45.0" fill="#ff4081"/><rect x="649.8" y="367.09467659584965" width="43.0" height="45.0" fill="#ffffff"/><rect x="745.3" y="367.09467659584965" width="43.0" height="45.0" fill="#e4113c"/><rect x="840.9" y="367.09467659584965" width="43.0" height="45.0" fill="#ff4081"/><rect x="936.4" y="367.09467659584965" width="43.0" height="45.0" fill="#ffffff"/><rect x="1032.0" y="367.09467659584965" width="43.0" height="45.0" fill="#e4113c"/><rect x="1127.5" y="367.09467659584965" width="43.0" height="45.0" fill="#ff4081"/><rect x="1223.1" y="367.09467659584965" width="43.0" height="45.0" fill="#ffffff"/><rect x="1318.6" y="367.09467659584965" width="43.0" height="45.0" fill="#e4113c"/><rect x="509.2040741101473" y="367.09467659584965" width="950.0" height="15.749999999999998" rx="7.65" fill="#ffffff" opacity="0.22"/><line x1="513.2040741101473" y1="389.59467659584965" x2="441.2" y2="412.1" stroke="#ff4081" stroke-width="9.9" stroke-linecap="round"/><line x1="513.2040741101473" y1="389.59467659584965" x2="441.2" y2="427.8" stroke="#ff4081" stroke-width="9.9" stroke-linecap="round"/><line x1="513.2040741101473" y1="389.59467659584965" x2="441.2" y2="443.6" stroke="#ff4081" stroke-width="9.9" stroke-linecap="round"/><line x1="513.2040741101473" y1="389.59467659584965" x2="441.2" y2="459.3" stroke="#ff4081" stroke-width="9.9" stroke-linecap="round"/><line x1="513.2040741101473" y1="389.59467659584965" x2="441.2" y2="475.1" stroke="#ff4081" stroke-width="9.9" stroke-linecap="round"/><circle cx="513.2040741101473" cy="389.59467659584965" r="33.8" fill="#ff4081"/><line x1="1455.2040741101473" y1="389.59467659584965" x2="1527.2" y2="412.1" stroke="#ff4081" stroke-width="9.9" stroke-linecap="round"/><line x1="1455.2040741101473" y1="389.59467659584965" x2="1527.2" y2="427.8" stroke="#ff4081" stroke-width="9.9" stroke-linecap="round"/><line x1="1455.2040741101473" y1="389.59467659584965" x2="1527.2" y2="443.6" stroke="#ff4081" stroke-width="9.9" stroke-linecap="round"/><line x1="1455.2040741101473" y1="389.59467659584965" x2="1527.2" y2="459.3" stroke="#ff4081" stroke-width="9.9" stroke-linecap="round"/><line x1="1455.2040741101473" y1="389.59467659584965" x2="1527.2" y2="475.1" stroke="#ff4081" stroke-width="9.9" stroke-linecap="round"/><circle cx="1455.2040741101473" cy="389.59467659584965" r="33.8" fill="#ff4081"/></g><g transform="rotate(29.74176753470764 984.2040741101473 389.59467659584965)"><rect x="509.2040741101473" y="367.09467659584965" width="950.0" height="45.0" rx="22.5" fill="#ff4081"/><rect x="554.2" y="367.09467659584965" width="43.0" height="45.0" fill="#ffffff"/><rect x="649.8" y="367.09467659584965" width="43.0" height="45.0" fill="#e4113c"/><rect x="745.3" y="367.09467659584965" width="43.0" height="45.0" fill="#f2c14e"/><rect x="840.9" y="367.09467659584965" width="43.0" height="45.0" fill="#ffffff"/><rect x="936.4" y="367.09467659584965" width="43.0" height="45.0" fill="#e4113c"/><rect x="1032.0" y="367.09467659584965" width="43.0" height="45.0" fill="#f2c14e"/><rect x="1127.5" y="367.09467659584965" width="43.0" height="45.0" fill="#ffffff"/><rect x="1223.1" y="367.09467659584965" width="43.0" height="45.0" fill="#e4113c"/><rect x="1318.6" y="367.09467659584965" width="43.0" height="45.0" fill="#f2c14e"/><rect x="509.2040741101473" y="367.09467659584965" width="950.0" height="15.749999999999998" rx="7.65" fill="#ffffff" opacity="0.22"/><line x1="513.2040741101473" y1="389.59467659584965" x2="441.2" y2="412.1" stroke="#ffffff" stroke-width="9.9" stroke-linecap="round"/><line x1="513.2040741101473" y1="389.59467659584965" x2="441.2" y2="427.8" stroke="#ffffff" stroke-width="9.9" stroke-linecap="round"/><line x1="513.2040741101473" y1="389.59467659584965" x2="441.2" y2="443.6" stroke="#ffffff" stroke-width="9.9" stroke-linecap="round"/><line x1="513.2040741101473" y1="389.59467659584965" x2="441.2" y2="459.3" stroke="#ffffff" stroke-width="9.9" stroke-linecap="round"/><line x1="513.2040741101473" y1="389.59467659584965" x2="441.2" y2="475.1" stroke="#ffffff" stroke-width="9.9" stroke-linecap="round"/><circle cx="513.2040741101473" cy="389.59467659584965" r="33.8" fill="#ffffff"/><line x1="1455.2040741101473" y1="389.59467659584965" x2="1527.2" y2="412.1" stroke="#ffffff" stroke-width="9.9" stroke-linecap="round"/><line x1="1455.2040741101473" y1="389.59467659584965" x2="1527.2" y2="427.8" stroke="#ffffff" stroke-width="9.9" stroke-linecap="round"/><line x1="1455.2040741101473" y1="389.59467659584965" x2="1527.2" y2="443.6" stroke="#ffffff" stroke-width="9.9" stroke-linecap="round"/><line x1="1455.2040741101473" y1="389.59467659584965" x2="1527.2" y2="459.3" stroke="#ffffff" stroke-width="9.9" stroke-linecap="round"/><line x1="1455.2040741101473" y1="389.59467659584965" x2="1527.2" y2="475.1" stroke="#ffffff" stroke-width="9.9" stroke-linecap="round"/><circle cx="1455.2040741101473" cy="389.59467659584965" r="33.8" fill="#ffffff"/></g><rect width="1600" height="1000" fill="url(#v)"/></svg>