<svg xmlns="http://www.w3.org/2000/svg" viewBox="0 0 1600 1000" width="1600" height="1000" preserveAspectRatio="xMidYMid slice"><defs><linearGradient id="g" x1="0" y1="0" x2="1" y2="1"><stop offset="0" stop-color="#0d0024"/><stop offset="0.55" stop-color="#3b0f7a"/><stop offset="1" stop-color="#8e24aa"/></linearGradient><radialGradient id="r" cx="0.73" cy="0.28" r="0.6"><stop offset="0" stop-color="#ea80fc" stop-opacity="0.55"/><stop offset="1" stop-color="#ea80fc" stop-opacity="0"/></radialGradient><linearGradient id="v" x1="0" y1="0" x2="0" y2="1"><stop offset="0.45" stop-color="#000" stop-opacity="0"/><stop offset="1" stop-color="#000" stop-opacity="0.55"/></linearGradient></defs><rect width="1600" height="1000" fill="url(#g)"/><rect width="1600" height="1000" fill="url(#r)"/><g opacity="0.55" fill="none" stroke="#f2c14e"><circle cx="1158.5551906631235" cy="480.05287153868335" r="104.1" stroke-width="1.2" stroke-dasharray="2 6"/><ellipse cx="1262.6" cy="480.1" rx="31.2" ry="11.5" transform="rotate(0.0 1262.6 480.1)" stroke-width="1.4"/><ellipse cx="1210.6" cy="570.2" rx="31.2" ry="11.5" transform="rotate(60.0 1210.6 570.2)" stroke-width="1.4"/><ellipse cx="1106.5" cy="570.2" rx="31.2" ry="11.5" transform="rotate(120.0 1106.5 570.2)" stroke-width="1.4"/><ellipse cx="1054.5" cy="480.1" rx="31.2" ry="11.5" transform="rotate(180.0 1054.5 480.1)" stroke-width="1.4"/><ellipse cx="1106.5" cy="389.9" rx="31.2" ry="11.5" transform="rotate(240.0 1106.5 389.9)" stroke-width="1.4"/><ellipse cx="1210.6" cy="389.9" rx="31.2" ry="11.5" transform="rotate(300.0 1210.6 389.9)" stroke-width="1.4"/><ellipse cx="1357.4" cy="541.6" rx="32.7" ry="12.1" transform="rotate(17.2 1357.4 541.6)" stroke-width="1.4"/><ellipse cx="1271.4" cy="655.0" rx="32.7" ry="12.1" transform="rotate(57.2 1271.4 655.0)" stroke-width="1.4"/><ellipse cx="1132.5" cy="686.6" rx="32.7" ry="12.1" transform="rotate(97.2 1132.5 686.6)" stroke-width="1.4"/><ellipse cx="1005.8" cy="621.5" rx="32.7" ry="12.1" transform="rotate(137.2 1005.8 621.5)" stroke-width="1.4"/><ellipse cx="950.6" cy="490.3" rx="32.7" ry="12.1" transform="rotate(177.2 950.6 490.3)" stroke-width="1.4"/><ellipse cx="992.7" cy="354.2" rx="32.7" ry="12.1" transform="rotate(217.2 992.7 354.2)" stroke-width="1.4"/><ellipse cx="1112.4" cy="277.1" rx="32.7" ry="12.1" transform="rotate(257.2 1112.4 277.1)" stroke-width="1.4"/><ellipse cx="1253.7" cy="294.9" rx="32.7" ry="12.1" transform="rotate(297.2 1253.7 294.9)" stroke-width="1.4"/><ellipse cx="1350.5" cy="399.3" rx="32.7" ry="12.1" transform="rotate(337.2 1350.5 399.3)" stroke-width="1.4"/><circle cx="1158.5551906631235" cy="480.05287153868335" r="312.3" stroke-width="1.8" stroke-dasharray="4 10"/><ellipse cx="1416.3" cy="656.4" rx="34.2" ry="12.7" transform="rotate(34.4 1416.3 656.4)" stroke-width="1.4"/><ellipse cx="1293.6" cy="761.6" rx="34.2" ry="12.7" transform="rotate(64.4 1293.6 761.6)" stroke-width="1.4"/><ellipse cx="1134.7" cy="791.4" rx="34.2" ry="12.7" transform="rotate(94.4 1134.7 791.4)" stroke-width="1.4"/><ellipse cx="982.2" cy="737.8" rx="34.2" ry="12.7" transform="rotate(124.4 982.2 737.8)" stroke-width="1.4"/><ellipse cx="877.0" cy="615.1" rx="34.2" ry="12.7" transform="rotate(154.4 877.0 615.1)" stroke-width="1.4"/><ellipse cx="847.2" cy="456.2" rx="34.2" ry="12.7" transform="rotate(184.4 847.2 456.2)" stroke-width="1.4"/><ellipse cx="900.8" cy="303.7" rx="34.2" ry="12.7" transform="rotate(214.4 900.8 303.7)" stroke-width="1.4"/><ellipse cx="1023.5" cy="198.5" rx="34.2" ry="12.7" transform="rotate(244.4 1023.5 198.5)" stroke-width="1.4"/><ellipse cx="1182.4" cy="168.7" rx="34.2" ry="12.7" transform="rotate(274.4 1182.4 168.7)" stroke-width="1.4"/><ellipse cx="1334.9" cy="222.3" rx="34.2" ry="12.7" transform="rotate(304.4 1334.9 222.3)" stroke-width="1.4"/><ellipse cx="1440.1" cy="345.0" rx="34.2" ry="12.7" transform="rotate(334.4 1440.1 345.0)" stroke-width="1.4"/><ellipse cx="1469.9" cy="503.9" rx="34.2" ry="12.7" transform="rotate(364.4 1469.9 503.9)" stroke-width="1.4"/><ellipse cx="1417.4" cy="806.2" rx="35.7" ry="13.3" transform="rotate(51.6 1417.4 806.2)" stroke-width="1.4"/><ellipse cx="1262.3" cy="883.3" rx="35.7" ry="13.3" transform="rotate(75.6 1262.3 883.3)" stroke-width="1.4"/><ellipse cx="1089.4" cy="890.6" rx="35.7" ry="13.3" transform="rotate(99.6 1089.4 890.6)" stroke-width="1.4"/><ellipse cx="928.3" cy="827.0" rx="35.7" ry="13.3" transform="rotate(123.6 928.3 827.0)" stroke-width="1.4"/><ellipse cx="807.1" cy="703.4" rx="35.7" ry="13.3" transform="rotate(147.6 807.1 703.4)" stroke-width="1.4"/><ellipse cx="746.7" cy="541.1" rx="35.7" ry="13.3" transform="rotate(171.6 746.7 541.1)" stroke-width="1.4"/><ellipse cx="757.5" cy="368.3" rx="35.7" ry="13.3" transform="rotate(195.6 757.5 368.3)" stroke-width="1.4"/><ellipse cx="837.6" cy="214.8" rx="35.7" ry="13.3" transform="rotate(219.6 837.6 214.8)" stroke-width="1.4"/><ellipse cx="973.2" cy="107.2" rx="35.7" ry="13.3" transform="rotate(243.6 973.2 107.2)" stroke-width="1.4"/><ellipse cx="1140.9" cy="64.1" rx="35.7" ry="13.3" transform="rotate(267.6 1140.9 64.1)" stroke-width="1.4"/><ellipse cx="1311.6" cy="92.8" rx="35.7" ry="13.3" transform="rotate(291.6 1311.6 92.8)" stroke-width="1.4"/><ellipse cx="1455.9" cy="188.6" rx="35.7" ry="13.3" transform="rotate(315.6 1455.9 188.6)" stroke-width="1.4"/><ellipse cx="1548.7" cy="334.7" rx="35.7" ry="13.3" transform="rotate(339.6 1548.7 334.7)" stroke-width="1.4"/><ellipse cx="1574.1" cy="506.0" rx="35.7" ry="13.3" transform="rotate(363.6 1574.1 506.0)" stroke-width="1.4"/><ellipse cx="1527.7" cy="672.7" rx="35.7" ry="13.3" transform="rotate(387.6 1527.7 672.7)" stroke-width="1.4"/><circle cx="1158.5551906631235" cy="480.05287153868335" r="520.5" stroke-width="2.4" stroke-dasharray="6 14"/><ellipse cx="1347.1" cy="965.1" rx="37.2" ry="13.9" transform="rotate(68.8 1347.1 965.1)" stroke-width="1.4"/><ellipse cx="1169.9" cy="1000.4" rx="37.2" ry="13.9" transform="rotate(88.8 1169.9 1000.4)" stroke-width="1.4"/><ellipse cx="991.2" cy="972.9" rx="37.2" ry="13.9" transform="rotate(108.8 991.2 972.9)" stroke-width="1.4"/><ellipse cx="832.8" cy="885.9" rx="37.2" ry="13.9" transform="rotate(128.8 832.8 885.9)" stroke-width="1.4"/><ellipse cx="713.6" cy="750.0" rx="37.2" ry="13.9" transform="rotate(148.8 713.6 750.0)" stroke-width="1.4"/><ellipse cx="648.1" cy="581.5" rx="37.2" ry="13.9" transform="rotate(168.8 648.1 581.5)" stroke-width="1.4"/><ellipse cx="644.2" cy="400.8" rx="37.2" ry="13.9" transform="rotate(188.8 644.2 400.8)" stroke-width="1.4"/><ellipse cx="702.3" cy="229.7" rx="37.2" ry="13.9" transform="rotate(208.8 702.3 229.7)" stroke-width="1.4"/><ellipse cx="815.4" cy="88.7" rx="37.2" ry="13.9" transform="rotate(228.8 815.4 88.7)" stroke-width="1.4"/><ellipse cx="970.0" cy="-5.0" rx="37.2" ry="13.9" transform="rotate(248.8 970.0 -5.0)" stroke-width="1.4"/><ellipse cx="1147.2" cy="-40.3" rx="37.2" ry="13.9" transform="rotate(268.8 1147.2 -40.3)" stroke-width="1.4"/><ellipse cx="1325.9" cy="-12.8" rx="37.2" ry="13.9" transform="rotate(288.8 1325.9 -12.8)" stroke-width="1.4"/><ellipse cx="1484.4" cy="74.2" rx="37.2" ry="13.9" transform="rotate(308.8 1484.4 74.2)" stroke-width="1.4"/><ellipse cx="1603.5" cy="210.1" rx="37.2" ry="13.9" transform="rotate(328.8 1603.5 210.1)" stroke-width="1.4"/><ellipse cx="1669.0" cy="378.6" rx="37.2" ry="13.9" transform="rotate(348.8 1669.0 378.6)" stroke-width="1.4"/><ellipse cx="1672.9" cy="559.3" rx="37.2" ry="13.9" transform="rotate(368.8 1672.9 559.3)" stroke-width="1.4"/><ellipse cx="1614.8" cy="730.4" rx="37.2" ry="13.9" transform="rotate(388.8 1614.8 730.4)" stroke-width="1.4"/><ellipse cx="1501.7" cy="871.4" rx="37.2" ry="13.9" transform="rotate(408.8 1501.7 871.4)" stroke-width="1.4"/><circle cx="1158.5551906631235" cy="480.05287153868335" r="41.6" fill="#f2c14e" opacity="0.6"/></g><g opacity="0.18" fill="none" stroke="#ffffff"><circle cx="181.08441858364745" cy="789.0137058321596" r="56.0" stroke-width="1.2" stroke-dasharray="2 6"/><ellipse cx="237.1" cy="789.0" rx="16.8" ry="6.2" transform="rotate(0.0 237.1 789.0)" stroke-width="1.4"/><ellipse cx="209.1" cy="837.5" rx="16.8" ry="6.2" transform="rotate(60.0 209.1 837.5)" stroke-width="1.4"/><ellipse cx="153.1" cy="837.5" rx="16.8" ry="6.2" transform="rotate(120.0 153.1 837.5)" stroke-width="1.4"/><ellipse cx="125.1" cy="789.0" rx="16.8" ry="6.2" transform="rotate(180.0 125.1 789.0)" stroke-width="1.4"/><ellipse cx="153.1" cy="740.5" rx="16.8" ry="6.2" transform="rotate(240.0 153.1 740.5)" stroke-width="1.4"/><ellipse cx="209.1" cy="740.5" rx="16.8" ry="6.2" transform="rotate(300.0 209.1 740.5)" stroke-width="1.4"/><ellipse cx="288.1" cy="822.1" rx="18.3" ry="6.8" transform="rotate(17.2 288.1 822.1)" stroke-width="1.4"/><ellipse cx="241.8" cy="883.1" rx="18.3" ry="6.8" transform="rotate(57.2 241.8 883.1)" stroke-width="1.4"/><ellipse cx="167.1" cy="900.1" rx="18.3" ry="6.8" transform="rotate(97.2 167.1 900.1)" stroke-width="1.4"/><ellipse cx="98.9" cy="865.1" rx="18.3" ry="6.8" transform="rotate(137.2 98.9 865.1)" stroke-width="1.4"/><ellipse cx="69.2" cy="794.5" rx="18.3" ry="6.8" transform="rotate(177.2 69.2 794.5)" stroke-width="1.4"/><ellipse cx="91.9" cy="721.3" rx="18.3" ry="6.8" transform="rotate(217.2 91.9 721.3)" stroke-width="1.4"/><ellipse cx="156.2" cy="679.8" rx="18.3" ry="6.8" transform="rotate(257.2 156.2 679.8)" stroke-width="1.4"/><ellipse cx="232.3" cy="689.4" rx="18.3" ry="6.8" transform="rotate(297.2 232.3 689.4)" stroke-width="1.4"/><ellipse cx="284.3" cy="745.6" rx="18.3" ry="6.8" transform="rotate(337.2 284.3 745.6)" stroke-width="1.4"/><circle cx="181.08441858364745" cy="789.0137058321596" r="168.0" stroke-width="1.8" stroke-dasharray="4 10"/><ellipse cx="319.7" cy="883.9" rx="19.8" ry="7.4" transform="rotate(34.4 319.7 883.9)" stroke-width="1.4"/><ellipse cx="253.7" cy="940.5" rx="19.8" ry="7.4" transform="rotate(64.4 253.7 940.5)" stroke-width="1.4"/><ellipse cx="168.3" cy="956.5" rx="19.8" ry="7.4" transform="rotate(94.4 168.3 956.5)" stroke-width="1.4"/><ellipse cx="86.2" cy="927.7" rx="19.8" ry="7.4" transform="rotate(124.4 86.2 927.7)" stroke-width="1.4"/><ellipse cx="29.6" cy="861.7" rx="19.8" ry="7.4" transform="rotate(154.4 29.6 861.7)" stroke-width="1.4"/><ellipse cx="13.6" cy="776.2" rx="19.8" ry="7.4" transform="rotate(184.4 13.6 776.2)" stroke-width="1.4"/><ellipse cx="42.4" cy="694.2" rx="19.8" ry="7.4" transform="rotate(214.4 42.4 694.2)" stroke-width="1.4"/><ellipse cx="108.4" cy="637.5" rx="19.8" ry="7.4" transform="rotate(244.4 108.4 637.5)" stroke-width="1.4"/><ellipse cx="193.9" cy="621.5" rx="19.8" ry="7.4" transform="rotate(274.4 193.9 621.5)" stroke-width="1.4"/><ellipse cx="275.9" cy="650.4" rx="19.8" ry="7.4" transform="rotate(304.4 275.9 650.4)" stroke-width="1.4"/><ellipse cx="332.6" cy="716.4" rx="19.8" ry="7.4" transform="rotate(334.4 332.6 716.4)" stroke-width="1.4"/><ellipse cx="348.6" cy="801.8" rx="19.8" ry="7.4" transform="rotate(364.4 348.6 801.8)" stroke-width="1.4"/><ellipse cx="320.3" cy="964.5" rx="21.3" ry="8.0" transform="rotate(51.6 320.3 964.5)" stroke-width="1.4"/><ellipse cx="236.9" cy="1005.9" rx="21.3" ry="8.0" transform="rotate(75.6 236.9 1005.9)" stroke-width="1.4"/><ellipse cx="143.9" cy="1009.9" rx="21.3" ry="8.0" transform="rotate(99.6 143.9 1009.9)" stroke-width="1.4"/><ellipse cx="57.2" cy="975.7" rx="21.3" ry="8.0" transform="rotate(123.6 57.2 975.7)" stroke-width="1.4"/><ellipse cx="-8.0" cy="909.2" rx="21.3" ry="8.0" transform="rotate(147.6 -8.0 909.2)" stroke-width="1.4"/><ellipse cx="-40.5" cy="821.9" rx="21.3" ry="8.0" transform="rotate(171.6 -40.5 821.9)" stroke-width="1.4"/><ellipse cx="-34.7" cy="728.9" rx="21.3" ry="8.0" transform="rotate(195.6 -34.7 728.9)" stroke-width="1.4"/><ellipse cx="8.4" cy="646.3" rx="21.3" ry="8.0" transform="rotate(219.6 8.4 646.3)" stroke-width="1.4"/><ellipse cx="81.4" cy="588.4" rx="21.3" ry="8.0" transform="rotate(243.6 81.4 588.4)" stroke-width="1.4"/><ellipse cx="171.6" cy="565.2" rx="21.3" ry="8.0" transform="rotate(267.6 171.6 565.2)" stroke-width="1.4"/><ellipse cx="263.4" cy="580.7" rx="21.3" ry="8.0" transform="rotate(291.6 263.4 580.7)" stroke-width="1.4"/><ellipse cx="341.0" cy="632.2" rx="21.3" ry="8.0" transform="rotate(315.6 341.0 632.2)" stroke-width="1.4"/><ellipse cx="391.0" cy="710.8" rx="21.3" ry="8.0" transform="rotate(339.6 391.0 710.8)" stroke-width="1.4"/><ellipse cx="404.7" cy="802.9" rx="21.3" ry="8.0" transform="rotate(363.6 404.7 802.9)" stroke-width="1.4"/><ellipse cx="379.7" cy="892.7" rx="21.3" ry="8.0" transform="rotate(387.6 379.7 892.7)" stroke-width="1.4"/><circle cx="181.08441858364745" cy="789.0137058321596" r="280.0" stroke-width="2.4" stroke-dasharray="6 14"/><ellipse cx="282.5" cy="1050.0" rx="22.8" ry="8.6" transform="rotate(68.8 282.5 1050.0)" stroke-width="1.4"/><ellipse cx="187.2" cy="1068.9" rx="22.8" ry="8.6" transform="rotate(88.8 187.2 1068.9)" stroke-width="1.4"/><ellipse cx="91.1" cy="1054.1" rx="22.8" ry="8.6" transform="rotate(108.8 91.1 1054.1)" stroke-width="1.4"/><ellipse cx="5.8" cy="1007.4" rx="22.8" ry="8.6" transform="rotate(128.8 5.8 1007.4)" stroke-width="1.4"/><ellipse cx="-58.3" cy="934.2" rx="22.8" ry="8.6" transform="rotate(148.8 -58.3 934.2)" stroke-width="1.4"/><ellipse cx="-93.5" cy="843.6" rx="22.8" ry="8.6" transform="rotate(168.8 -93.5 843.6)" stroke-width="1.4"/><ellipse cx="-95.7" cy="746.4" rx="22.8" ry="8.6" transform="rotate(188.8 -95.7 746.4)" stroke-width="1.4"/><ellipse cx="-64.4" cy="654.3" rx="22.8" ry="8.6" transform="rotate(208.8 -64.4 654.3)" stroke-width="1.4"/><ellipse cx="-3.5" cy="578.5" rx="22.8" ry="8.6" transform="rotate(228.8 -3.5 578.5)" stroke-width="1.4"/><ellipse cx="79.6" cy="528.0" rx="22.8" ry="8.6" transform="rotate(248.8 79.6 528.0)" stroke-width="1.4"/><ellipse cx="175.0" cy="509.1" rx="22.8" ry="8.6" transform="rotate(268.8 175.0 509.1)" stroke-width="1.4"/><ellipse cx="271.1" cy="523.9" rx="22.8" ry="8.6" transform="rotate(288.8 271.1 523.9)" stroke-width="1.4"/><ellipse cx="356.4" cy="570.7" rx="22.8" ry="8.6" transform="rotate(308.8 356.4 570.7)" stroke-width="1.4"/><ellipse cx="420.5" cy="643.8" rx="22.8" ry="8.6" transform="rotate(328.8 420.5 643.8)" stroke-width="1.4"/><ellipse cx="455.7" cy="734.4" rx="22.8" ry="8.6" transform="rotate(348.8 455.7 734.4)" stroke-width="1.4"/><ellipse cx="457.8" cy="831.6" rx="22.8" ry="8.6" transform="rotate(368.8 457.8 831.6)" stroke-width="1.4"/><ellipse cx="426.6" cy="923.7" rx="22.8" ry="8.6" transform="rotate(388.8 426.6 923.7)" stroke-width="1.4"/><ellipse cx="365.7" cy="999.5" rx="22.8" ry="8.6" transform="rotate(408.8 365.7 999.5)" stroke-width="1.4"/><circle cx="181.08441858364745" cy="789.0137058321596" r="22.4" fill="#ffffff" opacity="0.6"/></g><rect x="1173" y="169" width="6.8" height="5.1" rx="1.5" fill="#b388ff" opacity="0.75" transform="rotate(140 1173 169)"/><rect x="1452" y="686" width="8.0" height="3.4" rx="1.5" fill="#ff80ab" opacity="0.87" transform="rotate(6 1452 686)"/><rect x="989" y="295" width="10.2" height="5.6" rx="1.5" fill="#ffffff" opacity="0.46" transform="rotate(103 989 295)"/><circle cx="597" cy="505" r="6.0" fill="#b388ff" opacity="0.35"/><rect x="249" y="507" width="9.1" height="5.1" rx="1.5" fill="#f2c14e" opacity="0.72" transform="rotate(131 249 507)"/><circle cx="387" cy="315" r="6.5" fill="#b388ff" opacity="0.74"/><circle cx="1287" cy="348" r="3.7" fill="#ffffff" opacity="0.51"/><rect x="408" y="692" width="7.0" height="4.0" rx="1.5" fill="#ff80ab" opacity="0.72" transform="rotate(84 408 692)"/><circle cx="454" cy="708" r="3.1" fill="#ff80ab" opacity="0.36"/><rect x="1227" y="423" width="11.0" height="4.5" rx="1.5" fill="#b388ff" opacity="0.73" transform="rotate(87 1227 423)"/><circle cx="142" cy="608" r="2.4" fill="#ffffff" opacity="0.76"/><rect x="925" y="361" width="14.9" height="3.1" rx="1.5" fill="#b388ff" opacity="0.79" transform="rotate(165 925 361)"/><circle cx="526" cy="703" r="5.2" fill="#f2c14e" opacity="0.84"/><rect x="1247" y="768" width="6.4" height="5.8" rx="1.5" fill="#f2c14e" opacity="0.49" transform="rotate(9 1247 768)"/><rect x="950" y="917" width="10.3" height="5.7" rx="1.5" fill="#ffffff" opacity="0.49" transform="rotate(162 950 917)"/><rect x="1284" y="349" width="9.8" height="4.6" rx="1.5" fill="#b388ff" opacity="0.50" transform="rotate(178 1284 349)"/><rect x="1499" y="537" width="7.9" height="3.7" rx="1.5" fill="#b388ff" opacity="0.54" transform="rotate(6 1499 537)"/><rect x="169" y="302" width="6.9" height="4.2" rx="1.5" fill="#ffffff" opacity="0.49" transform="rotate(62 169 302)"/><circle cx="1252" cy="397" r="6.7" fill="#f2c14e" opacity="0.56"/><circle cx="110" cy="243" r="2.2" fill="#b388ff" opacity="0.37"/><circle cx="1259" cy="316" r="5.1" fill="#ffffff" opacity="0.68"/><circle cx="852" cy="16" r="2.7" fill="#ffffff" opacity="0.77"/><circle cx="713" cy="390" r="2.8" fill="#ffffff" opacity="0.39"/><rect x="216" y="948" width="15.3" height="5.7" rx="1.5" fill="#ffffff" opacity="0.67" transform="rotate(155 216 948)"/><circle cx="1482" cy="680" r="4.0" fill="#f2c14e" opacity="0.37"/><rect x="1136" y="615" width="6.5" height="5.8" rx="1.5" fill="#ff80ab" opacity="0.88" transform="rotate(110 1136 615)"/><circle cx="1461" cy="190" r="5.3" fill="#ffffff" opacity="0.84"/><rect x="329" y="352" width="7.1" height="5.4" rx="1.5" fill="#f2c14e" opacity="0.49" transform="rotate(167 329 352)"/><circle cx="914" cy="860" r="3.2" fill="#b388ff" opacity="0.58"/><circle cx="964" cy="514" r="2.0" fill="#f2c14e" opacity="0.48"/><circle cx="1198" cy="75" r="6.6" fill="#ff80ab" opacity="0.76"/><rect x="1402" y="965" width="8.5" height="5.1" rx="1.5" fill="#ff80ab" opacity="0.75" transform="rotate(13 1402 965)"/><rect x="705" y="435" width="13.0" height="3.8" rx="1.5" fill="#b388ff" opacity="0.59" transform="rotate(59 705 435)"/><rect x="1336" y="169" width="14.4" height="3.4" rx="1.5" fill="#ffffff" opacity="0.77" transform="rotate(82 1336 169)"/><circle cx="1009" cy="782" r="2.1" fill="#ff80ab" opacity="0.67"/><circle cx="927" cy="317" r="5.3" fill="#b388ff" opacity="0.73"/><circle cx="223" cy="258" r="5.1" fill="#f2c14e" opacity="0.71"/><circle cx="1140" cy="114" r="5.2" fill="#ffffff" opacity="0.58"/><circle cx="71" cy="829" r="6.4" fill="#f2c14e" opacity="0.53"/><circle cx="1478" cy="481" r="3.9" fill="#ffffff" opacity="0.70"/><rect x="369" y="841" width="15.0" height="4.2" rx="1.5" fill="#b388ff" opacity="0.78" transform="rotate(70 369 841)"/><circle cx="332" cy="401" r="3.9" fill="#ff80ab" opacity="0.73"/><rect x="1408" y="671" width="6.7" height="5.1" rx="1.5" fill="#ffffff" opacity="0.40" transform="rotate(27 1408 671)"/><rect x="859" y="596" width="12.2" height="3.8" rx="1.5" fill="#ffffff" opacity="0.79" transform="rotate(52 859 596)"/><rect x="206" y="159" width="6.2" height="5.5" rx="1.5" fill="#b388ff" opacity="0.52" transform="rotate(114 206 159)"/><rect x="996" y="777" width="6.7" height="3.7" rx="1.5" fill="#ffffff" opacity="0.71" transform="rotate(133 996 777)"/><g transform="rotate(-34.45570834825864 1158.5551906631235 480.05287153868335)"><rect x="683.5551906631235" y="457.55287153868335" width="950.0" height="45.0" rx="22.5" fill="#f2c14e"/><rect x="728.6" y="457.55287153868335" width="43.0" height="45.0" fill="#ff4081"/><rect x="824.1" y="457.55287153868335" width="43.0" height="45.0" fill="#ffffff"/><rect x="919.7" y="457.55287153868335" width="43.0" height="45.0" fill="#e4113c"/><rect x="1015.2" y="457.55287153868335" width="43.0" height="45.0" fill="#ff4081"/><rect x="1110.8" y="457.55287153868335" width="43.0" height="45.0" fill="#ffffff"/><rect x="1206.3" y="457.55287153868335" width="43.0" height="45.0" fill="#e4113c"/><rect x="1301.9" y="457.55287153868335" width="43.0" height="45.0" fill="#ff4081"/><rect x="1397.4" y="457.55287153868335" width="43.0" height="45.0" fill="#ffffff"/><rect x="1493.0" y="457.55287153868335" width="43.0" height="45.0" fill="#e4113c"/><rect x="683.5551906631235" y="457.55287153868335" width="950.0" height="15.749999999999998" rx="7.65" fill="#ffffff" opacity="0.22"/><line x1="687.5551906631235" y1="480.05287153868335" x2="615.6" y2="502.6" stroke="#ff4081" stroke-width="9.9" stroke-linecap="round"/><line x1="687.5551906631235" y1="480.05287153868335" x2="615.6" y2="518.3" stroke="#ff4081" stroke-width="9.9" stroke-linecap="round"/><line x1="687.5551906631235" y1="480.05287153868335" x2="615.6" y2="534.1" stroke="#ff4081" stroke-width="9.9" stroke-linecap="round"/><line x1="687.5551906631235" y1="480.05287153868335" x2="615.6" y2="549.8" stroke="#ff4081" stroke-width="9.9" stroke-linecap="round"/><line x1="687.5551906631235" y1="480.05287153868335" x2="615.6" y2="565.6" stroke="#ff4081" stroke-width="9.9" stroke-linecap="round"/><circle cx="687.5551906631235" cy="480.05287153868335" r="33.8" fill="#ff4081"/><line x1="1629.5551906631235" y1="480.05287153868335" x2="1701.6" y2="502.6" stroke="#ff4081" stroke-width="9.9" stroke-linecap="round"/><line x1="1629.5551906631235" y1="480.05287153868335" x2="1701.6" y2="518.3" stroke="#ff4081" stroke-width="9.9" stroke-linecap="round"/><line x1="1629.5551906631235" y1="480.05287153868335" x2="1701.6" y2="534.1" stroke="#ff4081" stroke-width="9.9" stroke-linecap="round"/><line x1="1629.5551906631235" y1="480.05287153868335" x2="1701.6" y2="549.8" stroke="#ff4081" stroke-width="9.9" stroke-linecap="round"/><line x1="1629.5551906631235" y1="480.05287153868335" x2="1701.6" y2="565.6" stroke="#ff4081" stroke-width="9.9" stroke-linecap="round"/><circle cx="1629.5551906631235" cy="480.05287153868335" r="33.8" fill="#ff4081"/></g><g transform="rotate(26.69203640292928 1158.5551906631235 480.05287153868335)"><rect x="683.5551906631235" y="457.55287153868335" width="950.0" height="45.0" rx="22.5" fill="#ff4081"/><rect x="728.6" y="457.55287153868335" width="43.0" height="45.0" fill="#ffffff"/><rect x="824.1" y="457.55287153868335" width="43.0" height="45.0" fill="#e4113c"/><rect x="919.7" y="457.55287153868335" width="43.0" height="45.0" fill="#f2c14e"/><rect x="1015.2" y="457.55287153868335" width="43.0" height="45.0" fill="#ffffff"/><rect x="1110.8" y="457.55287153868335" width="43.0" height="45.0" fill="#e4113c"/><rect x="1206.3" y="457.55287153868335" width="43.0" height="45.0" fill="#f2c14e"/><rect x="1301.9" y="457.55287153868335" width="43.0" height="45.0" fill="#ffffff"/><rect x="1397.4" y="457.55287153868335" width="43.0" height="45.0" fill="#e4113c"/><rect x="1493.0" y="457.55287153868335" width="43.0" height="45.0" fill="#f2c14e"/><rect x="683.5551906631235" y="457.55287153868335" width="950.0" height="15.749999999999998" rx="7.65" fill="#ffffff" opacity="0.22"/><line x1="687.5551906631235" y1="480.05287153868335" x2="615.6" y2="502.6" stroke="#ffffff" stroke-width="9.9" stroke-linecap="round"/><line x1="687.5551906631235" y1="480.05287153868335" x2="615.6" y2="518.3" stroke="#ffffff" stroke-width="9.9" stroke-linecap="round"/><line x1="687.5551906631235" y1="480.05287153868335" x2="615.6" y2="534.1" stroke="#ffffff" stroke-width="9.9" stroke-linecap="round"/><line x1="687.5551906631235" y1="480.05287153868335" x2="615.6" y2="549.8" stroke="#ffffff" stroke-width="9.9" stroke-linecap="round"/><line x1="687.5551906631235" y1="480.05287153868335" x2="615.6" y2="565.6" stroke="#ffffff" stroke-width="9.9" stroke-linecap="round"/><circle cx="687.5551906631235" cy="480.05287153868335" r="33.8" fill="#ffffff"/><line x1="1629.5551906631235" y1="480.05287153868335" x2="1701.6" y2="502.6" stroke="#ffffff" stroke-width="9.9" stroke-linecap="round"/><line x1="1629.5551906631235" y1="480.05287153868335" x2="1701.6" y2="518.3" stroke="#ffffff" stroke-width="9.9" stroke-linecap="round"/><line x1="1629.5551906631235" y1="480.05287153868335" x2="1701.6" y2="534.1" stroke="#ffffff" stroke-width="9.9" stroke-linecap="round"/><line x1="1629.5551906631235" y1="480.05287153868335" x2="1701.6" y2="549.8" stroke="#ffffff" stroke-width="9.9" stroke-linecap="round"/><line x1="1629.5551906631235" y1="480.05287153868335" x2="1701.6" y2="565.6" stroke="#ffffff" stroke-width="9.9" stroke-linecap="round"/><circle cx="1629.5551906631235" cy="480.05287153868335" r="33.8" fill="#ffffff"/></g><rect width="1600" height="1000" fill="url(#v)"/></svg>