<svg xmlns="http://www.w3.org/2000/svg" viewBox="0 0 1600 700" width="1600" height="700" preserveAspectRatio="xMidYMid slice"><defs><linearGradient id="g" x1="0" y1="0" x2="1" y2="1"><stop offset="0" stop-color="#0d0024"/><stop offset="0.55" stop-color="#3b0f7a"/><stop offset="1" stop-color="#8e24aa"/></linearGradient><radialGradient id="r" cx="0.57" cy="0.28" r="0.6"><stop offset="0" stop-color="#ea80fc" stop-opacity="0.55"/><stop offset="1" stop-color="#ea80fc" stop-opacity="0"/></radialGradient><linearGradient id="v" x1="0" y1="0" x2="0" y2="1"><stop offset="0.45" stop-color="#000" stop-opacity="0"/><stop offset="1" stop-color="#000" stop-opacity="0.55"/></linearGradient></defs><rect width="1600" height="700" fill="url(#g)"/><rect width="1600" height="700" fill="url(#r)"/><g opacity="0.55" fill="none" stroke="#f2c14e"><circle cx="1156.9377265231003" cy="244.33131851765154" r="63.4" stroke-width="1.2" stroke-dasharray="2 6"/><ellipse cx="1220.3" cy="244.3" rx="22.8" ry="8.4" transform="rotate(0.0 1220.3 244.3)" stroke-width="1.4"/><ellipse cx="1188.6" cy="299.2" rx="22.8" ry="8.4" transform="rotate(60.0 1188.6 299.2)" stroke-width="1.4"/><ellipse cx="1125.2" cy="299.2" rx="22.8" ry="8.4" transform="rotate(120.0 1125.2 299.2)" stroke-width="1.4"/><ellipse cx="1093.5" cy="244.3" rx="22.8" ry="8.4" transform="rotate(180.0 1093.5 244.3)" stroke-width="1.4"/><ellipse cx="1125.2" cy="189.4" rx="22.8" ry="8.4" transform="rotate(240.0 1125.2 189.4)" stroke-width="1.4"/><ellipse cx="1188.6" cy="189.4" rx="22.8" ry="8.4" transform="rotate(300.0 1188.6 189.4)" stroke-width="1.4"/><ellipse cx="1278.1" cy="281.8" rx="24.3" ry="9.0" transform="rotate(17.2 1278.1 281.8)" stroke-width="1.4"/><ellipse cx="1225.6" cy="350.9" rx="24.3" ry="9.0" transform="rotate(57.2 1225.6 350.9)" stroke-width="1.4"/><ellipse cx="1141.1" cy="370.1" rx="24.3" ry="9.0" transform="rotate(97.2 1141.1 370.1)" stroke-width="1.4"/><ellipse cx="1063.9" cy="330.5" rx="24.3" ry="9.0" transform="rotate(137.2 1063.9 330.5)" stroke-width="1.4"/><ellipse cx="1030.3" cy="250.6" rx="24.3" ry="9.0" transform="rotate(177.2 1030.3 250.6)" stroke-width="1.4"/><ellipse cx="1055.9" cy="167.7" rx="24.3" ry="9.0" transform="rotate(217.2 1055.9 167.7)" stroke-width="1.4"/><ellipse cx="1128.8" cy="120.7" rx="24.3" ry="9.0" transform="rotate(257.2 1128.8 120.7)" stroke-width="1.4"/><ellipse cx="1214.9" cy="131.5" rx="24.3" ry="9.0" transform="rotate(297.2 1214.9 131.5)" stroke-width="1.4"/><ellipse cx="1273.8" cy="195.2" rx="24.3" ry="9.0" transform="rotate(337.2 1273.8 195.2)" stroke-width="1.4"/><circle cx="1156.9377265231003" cy="244.33131851765154" r="190.2" stroke-width="1.8" stroke-dasharray="4 10"/><ellipse cx="1313.9" cy="351.7" rx="25.8" ry="9.6" transform="rotate(34.4 1313.9 351.7)" stroke-width="1.4"/><ellipse cx="1239.2" cy="415.8" rx="25.8" ry="9.6" transform="rotate(64.4 1239.2 415.8)" stroke-width="1.4"/><ellipse cx="1142.4" cy="434.0" rx="25.8" ry="9.6" transform="rotate(94.4 1142.4 434.0)" stroke-width="1.4"/><ellipse cx="1049.5" cy="401.3" rx="25.8" ry="9.6" transform="rotate(124.4 1049.5 401.3)" stroke-width="1.4"/><ellipse cx="985.5" cy="326.6" rx="25.8" ry="9.6" transform="rotate(154.4 985.5 326.6)" stroke-width="1.4"/><ellipse cx="967.3" cy="229.8" rx="25.8" ry="9.6" transform="rotate(184.4 967.3 229.8)" stroke-width="1.4"/><ellipse cx="1000.0" cy="136.9" rx="25.8" ry="9.6" transform="rotate(214.4 1000.0 136.9)" stroke-width="1.4"/><ellipse cx="1074.7" cy="72.8" rx="25.8" ry="9.6" transform="rotate(244.4 1074.7 72.8)" stroke-width="1.4"/><ellipse cx="1171.5" cy="54.7" rx="25.8" ry="9.6" transform="rotate(274.4 1171.5 54.7)" stroke-width="1.4"/><ellipse cx="1264.3" cy="87.4" rx="25.8" ry="9.6" transform="rotate(304.4 1264.3 87.4)" stroke-width="1.4"/><ellipse cx="1328.4" cy="162.1" rx="25.8" ry="9.6" transform="rotate(334.4 1328.4 162.1)" stroke-width="1.4"/><ellipse cx="1346.6" cy="258.8" rx="25.8" ry="9.6" transform="rotate(364.4 1346.6 258.8)" stroke-width="1.4"/><ellipse cx="1314.6" cy="443.0" rx="27.3" ry="10.2" transform="rotate(51.6 1314.6 443.0)" stroke-width="1.4"/><ellipse cx="1220.1" cy="489.9" rx="27.3" ry="10.2" transform="rotate(75.6 1220.1 489.9)" stroke-width="1.4"/><ellipse cx="1114.8" cy="494.4" rx="27.3" ry="10.2" transform="rotate(99.6 1114.8 494.4)" stroke-width="1.4"/><ellipse cx="1016.7" cy="455.6" rx="27.3" ry="10.2" transform="rotate(123.6 1016.7 455.6)" stroke-width="1.4"/><ellipse cx="942.9" cy="380.3" rx="27.3" ry="10.2" transform="rotate(147.6 942.9 380.3)" stroke-width="1.4"/><ellipse cx="906.1" cy="281.5" rx="27.3" ry="10.2" transform="rotate(171.6 906.1 281.5)" stroke-width="1.4"/><ellipse cx="912.7" cy="176.3" rx="27.3" ry="10.2" transform="rotate(195.6 912.7 176.3)" stroke-width="1.4"/><ellipse cx="961.5" cy="82.8" rx="27.3" ry="10.2" transform="rotate(219.6 961.5 82.8)" stroke-width="1.4"/><ellipse cx="1044.1" cy="17.3" rx="27.3" ry="10.2" transform="rotate(243.6 1044.1 17.3)" stroke-width="1.4"/><ellipse cx="1146.2" cy="-9.0" rx="27.3" ry="10.2" transform="rotate(267.6 1146.2 -9.0)" stroke-width="1.4"/><ellipse cx="1250.1" cy="8.5" rx="27.3" ry="10.2" transform="rotate(291.6 1250.1 8.5)" stroke-width="1.4"/><ellipse cx="1338.0" cy="66.8" rx="27.3" ry="10.2" transform="rotate(315.6 1338.0 66.8)" stroke-width="1.4"/><ellipse cx="1394.6" cy="155.8" rx="27.3" ry="10.2" transform="rotate(339.6 1394.6 155.8)" stroke-width="1.4"/><ellipse cx="1410.0" cy="260.1" rx="27.3" ry="10.2" transform="rotate(363.6 1410.0 260.1)" stroke-width="1.4"/><ellipse cx="1381.7" cy="361.7" rx="27.3" ry="10.2" transform="rotate(387.6 1381.7 361.7)" stroke-width="1.4"/><circle cx="1156.9377265231003" cy="244.33131851765154" r="317.0" stroke-width="2.4" stroke-dasharray="6 14"/><ellipse cx="1271.8" cy="539.8" rx="28.8" ry="10.8" transform="rotate(68.8 1271.8 539.8)" stroke-width="1.4"/><ellipse cx="1163.8" cy="561.2" rx="28.8" ry="10.8" transform="rotate(88.8 1163.8 561.2)" stroke-width="1.4"/><ellipse cx="1055.0" cy="544.5" rx="28.8" ry="10.8" transform="rotate(108.8 1055.0 544.5)" stroke-width="1.4"/><ellipse cx="958.5" cy="491.5" rx="28.8" ry="10.8" transform="rotate(128.8 958.5 491.5)" stroke-width="1.4"/><ellipse cx="885.9" cy="408.7" rx="28.8" ry="10.8" transform="rotate(148.8 885.9 408.7)" stroke-width="1.4"/><ellipse cx="846.0" cy="306.1" rx="28.8" ry="10.8" transform="rotate(168.8 846.0 306.1)" stroke-width="1.4"/><ellipse cx="843.6" cy="196.1" rx="28.8" ry="10.8" transform="rotate(188.8 843.6 196.1)" stroke-width="1.4"/><ellipse cx="879.0" cy="91.8" rx="28.8" ry="10.8" transform="rotate(208.8 879.0 91.8)" stroke-width="1.4"/><ellipse cx="948.0" cy="6.0" rx="28.8" ry="10.8" transform="rotate(228.8 948.0 6.0)" stroke-width="1.4"/><ellipse cx="1042.1" cy="-51.1" rx="28.8" ry="10.8" transform="rotate(248.8 1042.1 -51.1)" stroke-width="1.4"/><ellipse cx="1150.1" cy="-72.6" rx="28.8" ry="10.8" transform="rotate(268.8 1150.1 -72.6)" stroke-width="1.4"/><ellipse cx="1258.9" cy="-55.8" rx="28.8" ry="10.8" transform="rotate(288.8 1258.9 -55.8)" stroke-width="1.4"/><ellipse cx="1355.4" cy="-2.9" rx="28.8" ry="10.8" transform="rotate(308.8 1355.4 -2.9)" stroke-width="1.4"/><ellipse cx="1427.9" cy="79.9" rx="28.8" ry="10.8" transform="rotate(328.8 1427.9 79.9)" stroke-width="1.4"/><ellipse cx="1467.8" cy="182.5" rx="28.8" ry="10.8" transform="rotate(348.8 1467.8 182.5)" stroke-width="1.4"/><ellipse cx="1470.2" cy="292.6" rx="28.8" ry="10.8" transform="rotate(368.8 1470.2 292.6)" stroke-width="1.4"/><ellipse cx="1434.8" cy="396.8" rx="28.8" ry="10.8" transform="rotate(388.8 1434.8 396.8)" stroke-width="1.4"/><ellipse cx="1365.9" cy="482.7" rx="28.8" ry="10.8" transform="rotate(408.8 1365.9 482.7)" stroke-width="1.4"/><ellipse cx="1183.8" cy="623.8" rx="30.3" ry="11.4" transform="rotate(85.9 1183.8 623.8)" stroke-width="1.4"/><ellipse cx="1070.8" cy="614.8" rx="30.3" ry="11.4" transform="rotate(103.1 1070.8 614.8)" stroke-width="1.4"/><ellipse cx="965.4" cy="573.0" rx="30.3" ry="11.4" transform="rotate(120.2 965.4 573.0)" stroke-width="1.4"/><ellipse cx="877.1" cy="501.9" rx="30.3" ry="11.4" transform="rotate(137.4 877.1 501.9)" stroke-width="1.4"/><ellipse cx="813.6" cy="408.0" rx="30.3" ry="11.4" transform="rotate(154.5 813.6 408.0)" stroke-width="1.4"/><ellipse cx="780.6" cy="299.5" rx="30.3" ry="11.4" transform="rotate(171.7 780.6 299.5)" stroke-width="1.4"/><ellipse cx="781.0" cy="186.1" rx="30.3" ry="11.4" transform="rotate(188.8 781.0 186.1)" stroke-width="1.4"/><ellipse cx="814.9" cy="77.9" rx="30.3" ry="11.4" transform="rotate(205.9 814.9 77.9)" stroke-width="1.4"/><ellipse cx="879.1" cy="-15.5" rx="30.3" ry="11.4" transform="rotate(223.1 879.1 -15.5)" stroke-width="1.4"/><ellipse cx="968.1" cy="-85.8" rx="30.3" ry="11.4" transform="rotate(240.2 968.1 -85.8)" stroke-width="1.4"/><ellipse cx="1073.8" cy="-126.8" rx="30.3" ry="11.4" transform="rotate(257.4 1073.8 -126.8)" stroke-width="1.4"/><ellipse cx="1186.9" cy="-134.9" rx="30.3" ry="11.4" transform="rotate(274.5 1186.9 -134.9)" stroke-width="1.4"/><ellipse cx="1297.3" cy="-109.2" rx="30.3" ry="11.4" transform="rotate(291.7 1297.3 -109.2)" stroke-width="1.4"/><ellipse cx="1395.3" cy="-52.1" rx="30.3" ry="11.4" transform="rotate(308.8 1395.3 -52.1)" stroke-width="1.4"/><ellipse cx="1472.1" cy="31.3" rx="30.3" ry="11.4" transform="rotate(325.9 1472.1 31.3)" stroke-width="1.4"/><ellipse cx="1520.9" cy="133.7" rx="30.3" ry="11.4" transform="rotate(343.1 1520.9 133.7)" stroke-width="1.4"/><ellipse cx="1537.3" cy="245.9" rx="30.3" ry="11.4" transform="rotate(360.2 1537.3 245.9)" stroke-width="1.4"/><ellipse cx="1520.0" cy="357.9" rx="30.3" ry="11.4" transform="rotate(377.4 1520.0 357.9)" stroke-width="1.4"/><ellipse cx="1470.4" cy="459.9" rx="30.3" ry="11.4" transform="rotate(394.5 1470.4 459.9)" stroke-width="1.4"/><ellipse cx="1392.9" cy="542.7" rx="30.3" ry="11.4" transform="rotate(411.7 1392.9 542.7)" stroke-width="1.4"/><ellipse cx="1294.5" cy="599.0" rx="30.3" ry="11.4" transform="rotate(428.8 1294.5 599.0)" stroke-width="1.4"/><circle cx="1156.9377265231003" cy="244.33131851765154" r="30.4" fill="#f2c14e" opacity="0.6"/></g><g opacity="0.18" fill="none" stroke="#ffffff"><circle cx="185.62832259913503" cy="589.1303290112382" r="39.2" stroke-width="1.2" stroke-dasharray="2 6"/><ellipse cx="224.8" cy="589.1" rx="11.8" ry="4.3" transform="rotate(0.0 224.8 589.1)" stroke-width="1.4"/><ellipse cx="205.2" cy="623.1" rx="11.8" ry="4.3" transform="rotate(60.0 205.2 623.1)" stroke-width="1.4"/><ellipse cx="166.0" cy="623.1" rx="11.8" ry="4.3" transform="rotate(120.0 166.0 623.1)" stroke-width="1.4"/><ellipse cx="146.4" cy="589.1" rx="11.8" ry="4.3" transform="rotate(180.0 146.4 589.1)" stroke-width="1.4"/><ellipse cx="166.0" cy="555.2" rx="11.8" ry="4.3" transform="rotate(240.0 166.0 555.2)" stroke-width="1.4"/><ellipse cx="205.2" cy="555.2" rx="11.8" ry="4.3" transform="rotate(300.0 205.2 555.2)" stroke-width="1.4"/><ellipse cx="260.5" cy="612.3" rx="13.3" ry="4.9" transform="rotate(17.2 260.5 612.3)" stroke-width="1.4"/><ellipse cx="228.1" cy="655.0" rx="13.3" ry="4.9" transform="rotate(57.2 228.1 655.0)" stroke-width="1.4"/><ellipse cx="175.8" cy="666.9" rx="13.3" ry="4.9" transform="rotate(97.2 175.8 666.9)" stroke-width="1.4"/><ellipse cx="128.1" cy="642.4" rx="13.3" ry="4.9" transform="rotate(137.2 128.1 642.4)" stroke-width="1.4"/><ellipse cx="107.3" cy="593.0" rx="13.3" ry="4.9" transform="rotate(177.2 107.3 593.0)" stroke-width="1.4"/><ellipse cx="123.2" cy="541.7" rx="13.3" ry="4.9" transform="rotate(217.2 123.2 541.7)" stroke-width="1.4"/><ellipse cx="168.2" cy="512.7" rx="13.3" ry="4.9" transform="rotate(257.2 168.2 512.7)" stroke-width="1.4"/><ellipse cx="221.5" cy="519.4" rx="13.3" ry="4.9" transform="rotate(297.2 221.5 519.4)" stroke-width="1.4"/><ellipse cx="257.9" cy="558.7" rx="13.3" ry="4.9" transform="rotate(337.2 257.9 558.7)" stroke-width="1.4"/><circle cx="185.62832259913503" cy="589.1303290112382" r="117.6" stroke-width="1.8" stroke-dasharray="4 10"/><ellipse cx="282.7" cy="655.5" rx="14.8" ry="5.5" transform="rotate(34.4 282.7 655.5)" stroke-width="1.4"/><ellipse cx="236.5" cy="695.2" rx="14.8" ry="5.5" transform="rotate(64.4 236.5 695.2)" stroke-width="1.4"/><ellipse cx="176.7" cy="706.4" rx="14.8" ry="5.5" transform="rotate(94.4 176.7 706.4)" stroke-width="1.4"/><ellipse cx="119.2" cy="686.2" rx="14.8" ry="5.5" transform="rotate(124.4 119.2 686.2)" stroke-width="1.4"/><ellipse cx="79.6" cy="640.0" rx="14.8" ry="5.5" transform="rotate(154.4 79.6 640.0)" stroke-width="1.4"/><ellipse cx="68.4" cy="580.2" rx="14.8" ry="5.5" transform="rotate(184.4 68.4 580.2)" stroke-width="1.4"/><ellipse cx="88.6" cy="522.7" rx="14.8" ry="5.5" transform="rotate(214.4 88.6 522.7)" stroke-width="1.4"/><ellipse cx="134.8" cy="483.1" rx="14.8" ry="5.5" transform="rotate(244.4 134.8 483.1)" stroke-width="1.4"/><ellipse cx="194.6" cy="471.9" rx="14.8" ry="5.5" transform="rotate(274.4 194.6 471.9)" stroke-width="1.4"/><ellipse cx="252.0" cy="492.1" rx="14.8" ry="5.5" transform="rotate(304.4 252.0 492.1)" stroke-width="1.4"/><ellipse cx="291.7" cy="538.3" rx="14.8" ry="5.5" transform="rotate(334.4 291.7 538.3)" stroke-width="1.4"/><ellipse cx="302.9" cy="598.1" rx="14.8" ry="5.5" transform="rotate(364.4 302.9 598.1)" stroke-width="1.4"/><ellipse cx="283.1" cy="712.0" rx="16.3" ry="6.1" transform="rotate(51.6 283.1 712.0)" stroke-width="1.4"/><ellipse cx="224.7" cy="741.0" rx="16.3" ry="6.1" transform="rotate(75.6 224.7 741.0)" stroke-width="1.4"/><ellipse cx="159.6" cy="743.7" rx="16.3" ry="6.1" transform="rotate(99.6 159.6 743.7)" stroke-width="1.4"/><ellipse cx="98.9" cy="719.8" rx="16.3" ry="6.1" transform="rotate(123.6 98.9 719.8)" stroke-width="1.4"/><ellipse cx="53.3" cy="673.2" rx="16.3" ry="6.1" transform="rotate(147.6 53.3 673.2)" stroke-width="1.4"/><ellipse cx="30.5" cy="612.1" rx="16.3" ry="6.1" transform="rotate(171.6 30.5 612.1)" stroke-width="1.4"/><ellipse cx="34.6" cy="547.1" rx="16.3" ry="6.1" transform="rotate(195.6 34.6 547.1)" stroke-width="1.4"/><ellipse cx="64.8" cy="489.3" rx="16.3" ry="6.1" transform="rotate(219.6 64.8 489.3)" stroke-width="1.4"/><ellipse cx="115.8" cy="448.7" rx="16.3" ry="6.1" transform="rotate(243.6 115.8 448.7)" stroke-width="1.4"/><ellipse cx="179.0" cy="432.5" rx="16.3" ry="6.1" transform="rotate(267.6 179.0 432.5)" stroke-width="1.4"/><ellipse cx="243.3" cy="443.3" rx="16.3" ry="6.1" transform="rotate(291.6 243.3 443.3)" stroke-width="1.4"/><ellipse cx="297.6" cy="479.4" rx="16.3" ry="6.1" transform="rotate(315.6 297.6 479.4)" stroke-width="1.4"/><ellipse cx="332.6" cy="534.4" rx="16.3" ry="6.1" transform="rotate(339.6 332.6 534.4)" stroke-width="1.4"/><ellipse cx="342.1" cy="598.9" rx="16.3" ry="6.1" transform="rotate(363.6 342.1 598.9)" stroke-width="1.4"/><ellipse cx="324.6" cy="661.7" rx="16.3" ry="6.1" transform="rotate(387.6 324.6 661.7)" stroke-width="1.4"/><circle cx="185.62832259913503" cy="589.1303290112382" r="196.0" stroke-width="2.4" stroke-dasharray="6 14"/><ellipse cx="256.7" cy="771.8" rx="17.8" ry="6.7" transform="rotate(68.8 256.7 771.8)" stroke-width="1.4"/><ellipse cx="189.9" cy="785.1" rx="17.8" ry="6.7" transform="rotate(88.8 189.9 785.1)" stroke-width="1.4"/><ellipse cx="122.6" cy="774.7" rx="17.8" ry="6.7" transform="rotate(108.8 122.6 774.7)" stroke-width="1.4"/><ellipse cx="62.9" cy="742.0" rx="17.8" ry="6.7" transform="rotate(128.8 62.9 742.0)" stroke-width="1.4"/><ellipse cx="18.1" cy="690.8" rx="17.8" ry="6.7" transform="rotate(148.8 18.1 690.8)" stroke-width="1.4"/><ellipse cx="-6.6" cy="627.4" rx="17.8" ry="6.7" transform="rotate(168.8 -6.6 627.4)" stroke-width="1.4"/><ellipse cx="-8.1" cy="559.3" rx="17.8" ry="6.7" transform="rotate(188.8 -8.1 559.3)" stroke-width="1.4"/><ellipse cx="13.8" cy="494.8" rx="17.8" ry="6.7" transform="rotate(208.8 13.8 494.8)" stroke-width="1.4"/><ellipse cx="56.4" cy="441.8" rx="17.8" ry="6.7" transform="rotate(228.8 56.4 441.8)" stroke-width="1.4"/><ellipse cx="114.6" cy="406.5" rx="17.8" ry="6.7" transform="rotate(248.8 114.6 406.5)" stroke-width="1.4"/><ellipse cx="181.4" cy="393.2" rx="17.8" ry="6.7" transform="rotate(268.8 181.4 393.2)" stroke-width="1.4"/><ellipse cx="248.6" cy="403.5" rx="17.8" ry="6.7" transform="rotate(288.8 248.6 403.5)" stroke-width="1.4"/><ellipse cx="308.3" cy="436.3" rx="17.8" ry="6.7" transform="rotate(308.8 308.3 436.3)" stroke-width="1.4"/><ellipse cx="353.2" cy="487.5" rx="17.8" ry="6.7" transform="rotate(328.8 353.2 487.5)" stroke-width="1.4"/><ellipse cx="377.9" cy="550.9" rx="17.8" ry="6.7" transform="rotate(348.8 377.9 550.9)" stroke-width="1.4"/><ellipse cx="379.3" cy="619.0" rx="17.8" ry="6.7" transform="rotate(368.8 379.3 619.0)" stroke-width="1.4"/><ellipse cx="357.5" cy="683.4" rx="17.8" ry="6.7" transform="rotate(388.8 357.5 683.4)" stroke-width="1.4"/><ellipse cx="314.8" cy="736.5" rx="17.8" ry="6.7" transform="rotate(408.8 314.8 736.5)" stroke-width="1.4"/><circle cx="185.62832259913503" cy="589.1303290112382" r="15.7" fill="#ffffff" opacity="0.6"/></g><circle cx="390" cy="422" r="6.0" fill="#ff80ab" opacity="0.79"/><rect x="618" y="64" width="13.0" height="4.9" rx="1.5" fill="#f2c14e" opacity="0.79" transform="rotate(70 618 64)"/><rect x="1255" y="577" width="14.7" height="5.1" rx="1.5" fill="#b388ff" opacity="0.75" transform="rotate(78 1255 577)"/><rect x="542" y="269" width="14.2" height="5.7" rx="1.5" fill="#ff80ab" opacity="0.76" transform="rotate(141 542 269)"/><rect x="836" y="624" width="6.7" height="4.6" rx="1.5" fill="#b388ff" opacity="0.58" transform="rotate(75 836 624)"/><rect x="1155" y="198" width="11.6" height="5.7" rx="1.5" fill="#ff80ab" opacity="0.77" transform="rotate(122 1155 198)"/><circle cx="548" cy="630" r="3.8" fill="#ffffff" opacity="0.72"/><rect x="998" y="126" width="11.5" height="4.8" rx="1.5" fill="#ff80ab" opacity="0.47" transform="rotate(74 998 126)"/><rect x="15" y="649" width="10.2" height="5.7" rx="1.5" fill="#ffffff" opacity="0.36" transform="rotate(91 15 649)"/><rect x="337" y="261" width="8.3" height="4.7" rx="1.5" fill="#b388ff" opacity="0.81" transform="rotate(76 337 261)"/><rect x="1573" y="147" width="8.7" height="5.6" rx="1.5" fill="#ff80ab" opacity="0.79" transform="rotate(32 1573 147)"/><rect x="240" y="432" width="10.5" height="3.9" rx="1.5" fill="#b388ff" opacity="0.80" transform="rotate(83 240 432)"/><circle cx="527" cy="680" r="3.3" fill="#b388ff" opacity="0.46"/><rect x="1174" y="458" width="9.9" height="5.1" rx="1.5" fill="#f2c14e" opacity="0.73" transform="rotate(159 1174 458)"/><circle cx="320" cy="295" r="7.0" fill="#ff80ab" opacity="0.81"/><circle cx="419" cy="216" r="4.8" fill="#ffffff" opacity="0.84"/><rect x="349" y="107" width="11.1" height="5.7" rx="1.5" fill="#ff80ab" opacity="0.36" transform="rotate(159 349 107)"/><circle cx="1570" cy="376" r="3.6" fill="#ff80ab" opacity="0.41"/><circle cx="1038" cy="543" r="2.7" fill="#f2c14e" opacity="0.49"/><rect x="306" y="480" width="8.0" height="3.6" rx="1.5" fill="#ffffff" opacity="0.76" transform="rotate(158 306 480)"/><circle cx="1164" cy="278" r="4.2" fill="#ffffff" opacity="0.74"/><circle cx="1235" cy="582" r="5.1" fill="#ff80ab" opacity="0.58"/><circle cx="834" cy="504" r="6.8" fill="#ffffff" opacity="0.50"/><circle cx="343" cy="677" r="4.9" fill="#ff80ab" opacity="0.64"/><circle cx="233" cy="426" r="5.0" fill="#b388ff" opacity="0.77"/><circle cx="1021" cy="15" r="3.1" fill="#f2c14e" opacity="0.86"/><circle cx="126" cy="596" r="6.4" fill="#ffffff" opacity="0.82"/><circle cx="1253" cy="321" r="2.4" fill="#b388ff" opacity="0.81"/><circle cx="428" cy="614" r="6.4" fill="#ff80ab" opacity="0.61"/><rect x="174" y="45" width="6.7" height="4.8" rx="1.5" fill="#b388ff" opacity="0.39" transform="rotate(64 174 45)"/><rect x="885" y="168" width="10.8" height="5.3" rx="1.5" fill="#b388ff" opacity="0.63" transform="rotate(156 885 168)"/><rect x="134" y="675" width="14.9" height="4.7" rx="1.5" fill="#ff80ab" opacity="0.46" transform="rotate(52 134 675)"/><circle cx="1376" cy="56" r="3.8" fill="#f2c14e" opacity="0.60"/><rect x="1083" y="286" width="14.8" height="4.3" rx="1.5" fill="#ffffff" opacity="0.82" transform="rotate(170 1083 286)"/><circle cx="739" cy="362" r="3.2" fill="#f2c14e" opacity="0.65"/><circle cx="893" cy="550" r="4.0" fill="#ff80ab" opacity="0.37"/><rect x="838" y="257" width="15.7" height="4.9" rx="1.5" fill="#ff80ab" opacity="0.66" transform="rotate(145 838 257)"/><rect x="535" y="358" width="10.3" height="4.7" rx="1.5" fill="#ff80ab" opacity="0.49" transform="rotate(45 535 358)"/><circle cx="172" cy="229" r="5.5" fill="#b388ff" opacity="0.64"/><rect x="1358" y="315" width="12.9" height="5.8" rx="1.5" fill="#f2c14e" opacity="0.62" transform="rotate(37 1358 315)"/><rect x="1503" y="577" width="8.2" height="4.6" rx="1.5" fill="#b388ff" opacity="0.72" transform="rotate(115 1503 577)"/><rect x="386" y="278" width="8.5" height="5.8" rx="1.5" fill="#f2c14e" opacity="0.43" transform="rotate(82 386 278)"/><rect x="326" y="389" width="6.7" height="4.1" rx="1.5" fill="#f2c14e" opacity="0.78" transform="rotate(60 326 389)"/><rect x="772" y="64" width="9.9" height="5.2" rx="1.5" fill="#f2c14e" opacity="0.64" transform="rotate(144 772 64)"/><rect x="632" y="663" width="6.7" height="5.9" rx="1.5" fill="#ffffff" opacity="0.85" transform="rotate(140 632 663)"/><rect x="1193" y="295" width="10.7" height="5.7" rx="1.5" fill="#f2c14e" opacity="0.50" transform="rotate(106 1193 295)"/><g transform="rotate(-36.756597270307424 1156.9377265231003 244.33131851765154)"><rect x="824.4377265231003" y="228.58131851765154" width="665.0" height="31.5" rx="15.75" fill="#f2c14e"/><rect x="855.9" y="228.58131851765154" width="30.1" height="31.5" fill="#ff4081"/><rect x="922.8" y="228.58131851765154" width="30.1" height="31.5" fill="#ffffff"/><rect x="989.7" y="228.58131851765154" width="30.1" height="31.5" fill="#e4113c"/><rect x="1056.6" y="228.58131851765154" width="30.1" height="31.5" fill="#ff4081"/><rect x="1123.5" y="228.58131851765154" width="30.1" height="31.5" fill="#ffffff"/><rect x="1190.4" y="228.58131851765154" width="30.1" height="31.5" fill="#e4113c"/><rect x="1257.3" y="228.58131851765154" width="30.1" height="31.5" fill="#ff4081"/><rect x="1324.2" y="228.58131851765154" width="30.1" height="31.5" fill="#ffffff"/><rect x="1391.0" y="228.58131851765154" width="30.1" height="31.5" fill="#e4113c"/><rect x="824.4377265231003" y="228.58131851765154" width="665.0" height="11.024999999999999" rx="5.355" fill="#ffffff" opacity="0.22"/><line x1="828.4377265231003" y1="244.33131851765154" x2="778.0" y2="260.1" stroke="#ff4081" stroke-width="6.9" stroke-linecap="round"/><line x1="828.4377265231003" y1="244.33131851765154" x2="778.0" y2="271.1" stroke="#ff4081" stroke-width="6.9" stroke-linecap="round"/><line x1="828.4377265231003" y1="244.33131851765154" x2="778.0" y2="282.1" stroke="#ff4081" stroke-width="6.9" stroke-linecap="round"/><line x1="828.4377265231003" y1="244.33131851765154" x2="778.0" y2="293.2" stroke="#ff4081" stroke-width="6.9" stroke-linecap="round"/><line x1="828.4377265231003" y1="244.33131851765154" x2="778.0" y2="304.2" stroke="#ff4081" stroke-width="6.9" stroke-linecap="round"/><circle cx="828.4377265231003" cy="244.33131851765154" r="23.6" fill="#ff4081"/><line x1="1485.4377265231003" y1="244.33131851765154" x2="1535.8" y2="260.1" stroke="#ff4081" stroke-width="6.9" stroke-linecap="round"/><line x1="1485.4377265231003" y1="244.33131851765154" x2="1535.8" y2="271.1" stroke="#ff4081" stroke-width="6.9" stroke-linecap="round"/><line x1="1485.4377265231003" y1="244.33131851765154" x2="1535.8" y2="282.1" stroke="#ff4081" stroke-width="6.9" stroke-linecap="round"/><line x1="1485.4377265231003" y1="244.33131851765154" x2="1535.8" y2="293.2" stroke="#ff4081" stroke-width="6.9" stroke-linecap="round"/><line x1="1485.4377265231003" y1="244.33131851765154" x2="1535.8" y2="304.2" stroke="#ff4081" stroke-width="6.9" stroke-linecap="round"/><circle cx="1485.4377265231003" cy="244.33131851765154" r="23.6" fill="#ff4081"/></g><g transform="rotate(34.74734432014301 1156.9377265231003 244.33131851765154)"><rect x="824.4377265231003" y="228.58131851765154" width="665.0" height="31.5" rx="15.75" fill="#ff4081"/><rect x="855.9" y="228.58131851765154" width="30.1" height="31.5" fill="#ffffff"/><rect x="922.8" y="228.58131851765154" width="30.1" height="31.5" fill="#e4113c"/><rect x="989.7" y="228.58131851765154" width="30.1" height="31.5" fill="#f2c14e"/><rect x="1056.6" y="228.58131851765154" width="30.1" height="31.5" fill="#ffffff"/><rect x="1123.5" y="228.58131851765154" width="30.1" height="31.5" fill="#e4113c"/><rect x="1190.4" y="228.58131851765154" width="30.1" height="31.5" fill="#f2c14e"/><rect x="1257.3" y="228.58131851765154" width="30.1" height="31.5" fill="#ffffff"/><rect x="1324.2" y="228.58131851765154" width="30.1" height="31.5" fill="#e4113c"/><rect x="1391.0" y="228.58131851765154" width="30.1" height="31.5" fill="#f2c14e"/><rect x="824.4377265231003" y="228.58131851765154" width="665.0" height="11.024999999999999" rx="5.355" fill="#ffffff" opacity="0.22"/><line x1="828.4377265231003" y1="244.33131851765154" x2="778.0" y2="260.1" stroke="#ffffff" stroke-width="6.9" stroke-linecap="round"/><line x1="828.4377265231003" y1="244.33131851765154" x2="778.0" y2="271.1" stroke="#ffffff" stroke-width="6.9" stroke-linecap="round"/><line x1="828.4377265231003" y1="244.33131851765154" x2="778.0" y2="282.1" stroke="#ffffff" stroke-width="6.9" stroke-linecap="round"/><line x1="828.4377265231003" y1="244.33131851765154" x2="778.0" y2="293.2" stroke="#ffffff" stroke-width="6.9" stroke-linecap="round"/><line x1="828.4377265231003" y1="244.33131851765154" x2="778.0" y2="304.2" stroke="#ffffff" stroke-width="6.9" stroke-linecap="round"/><circle cx="828.4377265231003" cy="244.33131851765154" r="23.6" fill="#ffffff"/><line x1="1485.4377265231003" y1="244.33131851765154" x2="1535.8" y2="260.1" stroke="#ffffff" stroke-width="6.9" stroke-linecap="round"/><line x1="1485.4377265231003" y1="244.33131851765154" x2="1535.8" y2="271.1" stroke="#ffffff" stroke-width="6.9" stroke-linecap="round"/><line x1="1485.4377265231003" y1="244.33131851765154" x2="1535.8" y2="282.1" stroke="#ffffff" stroke-width="6.9" stroke-linecap="round"/><line x1="1485.4377265231003" y1="244.33131851765154" x2="1535.8" y2="293.2" stroke="#ffffff" stroke-width="6.9" stroke-linecap="round"/><line x1="1485.4377265231003" y1="244.33131851765154" x2="1535.8" y2="304.2" stroke="#ffffff" stroke-width="6.9" stroke-linecap="round"/><circle cx="1485.4377265231003" cy="244.33131851765154" r="23.6" fill="#ffffff"/></g><rect width="1600" height="700" fill="url(#v)"/></svg>